<svg xmlns="http://www.w3.org/2000/svg" width="59.912" height="59.752" viewBox="0 0 59.912 59.752">
  <g id="Grupo_4642" data-name="Grupo 4642" transform="translate(-502.5 -2411)">
    <path id="Caminho_4681" data-name="Caminho 4681" d="M384.609,871.733a4.783,4.783,0,0,0,.89-.164,4.156,4.156,0,0,0,2.118-1.368,3.6,3.6,0,0,0,.8-2.3,4.243,4.243,0,0,0-.168-1.123c-.147-.522-.258-1-.343-1.458-.02.021-.037.044-.057.064a6.111,6.111,0,0,1-.48.433c-.167.136-.343.265-.527.387s-.379.239-.583.35-.414.213-.636.311-.445.187-.692.275h0l-.255.092-.271.1-.253.1-.244.1h0l-.228.094-.053.022-.152.065-.2.085-.183.083c-.1.046-.2.093-.3.142s-.185.092-.259.131h0c-.066.034-.14.076-.223.124h0c-.067.039-.134.081-.2.126s-.131.088-.19.131h0c-.058.043-.121.092-.191.149l-.078.064-.126.109q-.114.1-.225.207c-.155.146-.315.289-.48.426s-.327.264-.483.376h0q-.253.184-.49.329c-.164.1-.33.195-.5.279l-.054.027h0c-.063.032-.128.057-.191.086a11.024,11.024,0,0,1,1.724.4,16.477,16.477,0,0,0,3.788.737" transform="translate(155.641 1583.511)" fill="#343659"/>
    <path id="Caminho_4682" data-name="Caminho 4682" d="M366.681,789.554a7.421,7.421,0,0,0-5.391.714,12.848,12.848,0,0,0-3.955,4.034l-.239.351a14.54,14.54,0,0,1,3.108.457,7.043,7.043,0,0,0,3.46.233,15.149,15.149,0,0,1,3.476-.72,9.673,9.673,0,0,1,6.516,1.672c-1.639-3.564-3.779-6.493-6.976-6.739" transform="translate(169.412 1631.05)" fill="#343659"/>
    <path id="Caminho_4683" data-name="Caminho 4683" d="M334.631,790.976c-2.035-.226-3.759-.417-5.511,1.02-3.209,2.632-3.41,5.552-3.6,8.529a10.271,10.271,0,0,1,3.68-1.837c4.665-1.363,5.651-2.821,6.807-4.532a15.278,15.278,0,0,1,2.469-2.99,22.5,22.5,0,0,1-3.844-.189" transform="translate(189.177 1630.141)" fill="#315377"/>
    <path id="Caminho_4684" data-name="Caminho 4684" d="M329.056,815.8a8.08,8.08,0,0,0-3.213,1.661,4.092,4.092,0,0,0-1.273,2.069,4.8,4.8,0,0,0,.112,2.491,9.731,9.731,0,0,0,2.222,3.7c.364.4.744.761,1.122,1.119a14.375,14.375,0,0,1,1.958,2.142c0-.017,0-.034,0-.051q.038-.356.107-.737l.05-.289c.02-.115.036-.212.046-.275l.04-.261h0c.015-.1.028-.195.038-.262.015-.108.025-.182.032-.238s.016-.127.028-.229l.024-.219c.009-.081.015-.147.019-.188.009-.1.018-.216.026-.337h0c.008-.112.013-.21.015-.3s0-.18,0-.263-.005-.16-.011-.25-.013-.157-.024-.241-.023-.171-.037-.254-.034-.187-.053-.279-.042-.2-.07-.317c-.047-.207-.088-.413-.121-.615s-.058-.4-.078-.595-.03-.39-.034-.58,0-.379.01-.558.029-.374.056-.551c0-.031.013-.062.018-.093a13.161,13.161,0,0,1,.615-5.731c-.5.178-1.038.353-1.632.527" transform="translate(189.843 1614.836)" fill="#009399"/>
    <path id="Caminho_4685" data-name="Caminho 4685" d="M321.145,845.223a8.483,8.483,0,0,0-2.623-3.675c-.41-.388-.822-.779-1.218-1.215a12.167,12.167,0,0,1-2.392-3.743,11.738,11.738,0,0,1-.685,1.057c-1.511,2.077-2.5,2.219-2.829,5.136a8.684,8.684,0,0,0,.271,3.34c.774,2.612,3.047,3.388,5.383,4.186a15.7,15.7,0,0,1,4.659,2.2,15.125,15.125,0,0,1-.129-3.065,11.52,11.52,0,0,0-.437-4.218" transform="translate(198.05 1601.493)" fill="#315377"/>
    <path id="Caminho_4686" data-name="Caminho 4686" d="M350.551,772.394q-.549.453-1.122,1a15.538,15.538,0,0,1-2.146,1.7c.407.034.82.079,1.245.126a14.019,14.019,0,0,0,6.879-.532,23.262,23.262,0,0,1,9.206-1.667l-.113-.1a15.087,15.087,0,0,0-4.106-2.614,8.475,8.475,0,0,0-3.842-.648h0a8.433,8.433,0,0,0-2.4.553,11.812,11.812,0,0,0-2.479,1.333q-.559.387-1.113.844" transform="translate(175.555 1643.397)" fill="#315377"/>
    <path id="Caminho_4687" data-name="Caminho 4687" d="M390.017,819.572l-.049.286c-.022.127-.037.217-.047.279-.007.042-.02.132-.04.263h0c-.016.106-.028.193-.038.26-.015.1-.025.183-.033.236s-.016.131-.028.232l-.025.218h0c-.009.085-.015.147-.019.189h0c-.006.071-.014.163-.023.286-.007.1-.013.192-.016.271s-.007.175-.008.252,0,.161,0,.241.006.142.013.227.014.16.023.23.023.156.038.238c.007.038.017.083.026.125q.154-.237.312-.472a6.079,6.079,0,0,0,1.346-4.306,15.047,15.047,0,0,0-.68-3.419c-.021-.066-.044-.133-.066-.2-.018-.049-.037-.1-.053-.148l-.058-.169a10.8,10.8,0,0,0-2.925-4.473,7.768,7.768,0,0,0-5.923-1.83,11.923,11.923,0,0,0-1.552.231c.018.009.037.016.055.025.19.1.386.209.588.335s.392.257.581.4.386.3.576.461c.129.111.26.224.395.337s.269.227.4.33.263.212.4.318.272.2.406.3.269.181.4.26.272.159.411.23h0c.139.071.279.136.417.191a4.308,4.308,0,0,0,.429.148q.32.092.627.2t.59.232q.288.125.55.262t.507.291c.162.1.32.213.474.332s.3.238.43.363a5.469,5.469,0,0,1,.386.4,5.324,5.324,0,0,1,.938,1.527,5.554,5.554,0,0,1,.2.6,6.026,6.026,0,0,1,.138.636c.034.212.059.429.072.649s.018.445.012.68-.022.471-.048.711-.061.484-.107.739" transform="translate(154.956 1619.164)" fill="#009399"/>
    <path id="Caminho_4688" data-name="Caminho 4688" d="M345.671,830.22c.031.089.065.173.1.251s.078.16.121.235h0c.045.078.092.153.142.224a2.922,2.922,0,0,0,.189.241h0a3.109,3.109,0,0,0,.216.226c.08.076.163.147.25.215s.181.135.279.2.208.129.322.191h0c.109.059.229.118.357.177s.261.112.4.163.281.1.426.146a6.466,6.466,0,0,1,.935.376,9.237,9.237,0,0,1,.874.5c.564.359,1.091.762,1.616,1.163l0,0,.011.008.011.009a15.183,15.183,0,0,0,2.013,1.376,3.674,3.674,0,0,0,2.051.5,2.915,2.915,0,0,0,.31-.046h0a3.155,3.155,0,0,0,.315-.08c.1-.032.212-.071.322-.117s.221-.1.326-.153.221-.122.341-.2.235-.154.347-.238.234-.18.352-.281c.1-.083.2-.171.294-.262l.06-.058c.081-.077.153-.145.218-.2s.135-.122.206-.183.138-.117.2-.167l.03-.024,0,0,.172-.125c.07-.051.14-.1.211-.146s.14-.089.227-.141.165-.1.244-.14.169-.092.269-.143h0l.005,0,0,0,.03-.014,0,0,.006,0,.007,0,3.086-1.288.017-.007q.2-.089.384-.185t.348-.2h0c.109-.068.216-.14.319-.216s.2-.152.285-.228.164-.153.241-.235a3.179,3.179,0,0,0,.209-.247,2.852,2.852,0,0,0,.175-.26h0a2.983,2.983,0,0,0,.269-.586,3.208,3.208,0,0,0,.091-.332c.025-.118.046-.238.059-.36s.024-.254.027-.379,0-.275-.009-.424-.024-.295-.046-.449l0-.021v0q-.031-.223-.08-.456c-.033-.158-.074-.328-.122-.509-.029-.109-.055-.216-.075-.319h0c-.021-.1-.038-.206-.052-.316s-.026-.211-.033-.311-.012-.2-.015-.31,0-.2,0-.3,0-.2.008-.294c0-.11.011-.208.016-.3.007-.112.015-.205.021-.292l0-.013v-.013l0-.021.013-.095.219-1.607.038-.273h0l.031-.2,0-.013.015-.1.056-.378q.034-.242.05-.476c.011-.159.016-.309.015-.449s-.007-.28-.019-.414-.03-.264-.054-.391-.05-.236-.083-.348a3.3,3.3,0,0,0-.113-.323,2.95,2.95,0,0,0-.316-.575,3.09,3.09,0,0,0-.2-.25c-.07-.079-.147-.156-.232-.235s-.175-.153-.264-.221h0c-.1-.075-.2-.144-.3-.206l-.057-.036q-.134-.08-.287-.16c-.121-.062-.249-.122-.384-.18s-.277-.113-.423-.163-.3-.1-.464-.147q-.279-.08-.545-.182t-.516-.221a9.23,9.23,0,0,1-1.359-.805c-.4-.283-.785-.588-1.161-.9h0l-.07-.059-.044-.037-.008-.007-.1-.08-.012-.011,0,0-.113-.095-.108-.092-.007-.006-.117-.1c-.144-.123-.285-.237-.42-.338s-.276-.2-.41-.285-.268-.162-.4-.232h0q-.176-.092-.349-.164l-.044-.018a3.87,3.87,0,0,0-.37-.129,3.193,3.193,0,0,0-.363-.082,2.877,2.877,0,0,0-.709-.034h-.006c-.071.005-.144.014-.22.025s-.152.026-.221.042-.152.038-.226.061-.149.049-.231.08-.159.064-.236.1-.16.077-.24.119-.163.091-.243.14-.163.1-.243.159l-.113.08h0l-.108.08-.1.082h0l-.116.094-.111.094c-.05.043-.087.075-.112.1s-.061.055-.113.1h0c-.023.021-.062.058-.115.109-.157.15-.324.294-.5.43s-.353.264-.531.38l-.064.041h0c-.161.1-.326.2-.493.294q-.287.159-.577.3t-.57.26c-.185.08-.378.158-.575.235s-.379.146-.563.214c-.122.045-.329.12-.558.2h0l-.008,0-.013,0c-.13.044-.264.1-.4.157s-.271.128-.407.2-.267.156-.4.244-.253.177-.379.277-.227.189-.331.287-.2.2-.29.3-.165.2-.239.3h0a3.133,3.133,0,0,0-.186.3,3.008,3.008,0,0,0-.111.283,3.081,3.081,0,0,0-.087.309c-.025.109-.045.221-.059.334s-.025.233-.03.354,0,.26,0,.4.017.272.033.421.04.3.067.447h0c.027.15.061.306.1.467.031.128.059.251.084.373s.046.237.064.354.034.233.045.342.02.225.025.338.008.216.008.333,0,.224-.006.337h0v.009h0c0,.127-.012.248-.02.365s-.019.238-.033.4l-.012.14-.021.23-.011.128h-.011l-.262,1.975-.1.779c0,.11,0,.219,0,.326s.011.216.022.322h0c.009.1.024.2.043.306s.039.2.063.288v0c.023.087.05.177.082.266" transform="translate(176.697 1615.827)" fill="#315377"/>
    <path id="Caminho_4689" data-name="Caminho 4689" d="M349.986,810.788l.055-.036q.177-.117.343-.245c.126-.1.247-.2.362-.31q.25-.238.5-.445c.167-.139.334-.27.5-.39s.336-.235.509-.34l.006,0-.278-.061c-1.593-.353-3.252-.721-4.69.078a5.782,5.782,0,0,0-2.685,4.424c.023-.019.043-.04.066-.059.167-.136.343-.265.527-.387s.379-.239.583-.349.415-.214.635-.311.446-.187.692-.275c.123-.045.268-.1.5-.181.171-.063.342-.128.51-.194s.327-.131.5-.2h0c.169-.073.333-.147.487-.22h0q.23-.11.455-.234c.15-.083.293-.168.429-.255" transform="translate(177.23 1619.039)" fill="#343659"/>
    <path id="Caminho_4690" data-name="Caminho 4690" d="M306.418,799.486a9,9,0,0,0-.779,3.42,15.7,15.7,0,0,0,.5,4.356,16.248,16.248,0,0,1,.492,3.147c.027.52.023,1.052,0,1.625.645-1.013,1.276-1.318,2.225-2.8,1.416-2.207,1.561-4.486,1.7-6.733.18-2.837.364-5.63,2.519-8.345a13.633,13.633,0,0,0-3.928,2.2,10.655,10.655,0,0,0-2.731,3.125" transform="translate(201.627 1628.051)" fill="#343659"/>
    <path id="Caminho_4691" data-name="Caminho 4691" d="M398.445,795.282h0l-.017-.077a15.31,15.31,0,0,0-2.121-5.716,8.568,8.568,0,0,0-4.714-3.777,11.224,11.224,0,0,0-4.4-.318c6.359,1.672,8.469,11.079,9.626,14.432.416,1.2,1.724,2.661,3.213,4.319.43.478.873.972,1.26,1.416a11.1,11.1,0,0,1,.909,1.2,9.707,9.707,0,0,1,1.587,6.537c.151-.254.306-.526.471-.836a7.7,7.7,0,0,0,.963-4.236,8.3,8.3,0,0,0-1.612-4.184,9.358,9.358,0,0,0-1.7-1.728l-.023-.019c-2.371-2.015-2.772-3.891-3.338-6.541l-.1-.471Z" transform="translate(150.576 1633.587)" fill="#315377"/>
    <path id="Caminho_4692" data-name="Caminho 4692" d="M369.183,904.9a17.438,17.438,0,0,1,1.852-1.59c.325-.235.665-.455,1.041-.677h0c-4.666.018-6.019.847-7.631,1.833-.559.341-1.2.732-2.15,1.221a8.315,8.315,0,0,1-3.074.909,10.437,10.437,0,0,1-3.721-.382v0c-.213-.052-.414-.11-.609-.171,2.335,1.583,4.738,2.747,7.4,2.509a8.987,8.987,0,0,0,3.378-1.04,15.7,15.7,0,0,0,3.518-2.608" transform="translate(170.793 1560.154)" fill="#343659"/>
    <path id="Caminho_4693" data-name="Caminho 4693" d="M426.261,801.628a8.3,8.3,0,0,0-1.372-3.329,9.034,9.034,0,0,0-2.621-2.413,15.891,15.891,0,0,0-4.067-1.735c-.089-.025-.172-.06-.26-.087a17.885,17.885,0,0,1,2.192,6.086l.017.077v0l.1.476c.461,2.159.788,3.688,2.5,5.144l.023.02a11.349,11.349,0,0,1,2.121,2.19,12.656,12.656,0,0,1,.891,1.454l.166-1.222c.073-.536.12-.848.168-1.164.067-.445.135-.9.163-1.108a13.774,13.774,0,0,0-.027-4.395" transform="translate(131.329 1628.111)" fill="#009399"/>
    <path id="Caminho_4694" data-name="Caminho 4694" d="M305.642,868.256a8.076,8.076,0,0,0,1.2,2.623,8.911,8.911,0,0,0,2.472,2.333,15.134,15.134,0,0,0,3.8,1.716,24.013,24.013,0,0,1,7.167,4.178,13.978,13.978,0,0,1-1.291-3.145,8.907,8.907,0,0,0-2.1-4.011,11.814,11.814,0,0,0-4.421-2.216c-2.961-1.012-5.842-2-6.986-5.859-.006-.018-.009-.038-.013-.056l-.156,1.171a11.533,11.533,0,0,0,.334,3.266" transform="translate(201.831 1584.45)" fill="#009399"/>
    <path id="Caminho_4695" data-name="Caminho 4695" d="M345.993,874.034a4.093,4.093,0,0,0,2.691.206,6.213,6.213,0,0,0,2.777-1.569,10.152,10.152,0,0,1,2.1-1.46c-.111-.022-.222-.046-.333-.075a6,6,0,0,1-.614-.2q-.3-.114-.6-.262t-.594-.331q-.288-.178-.588-.4t-.585-.46c-.13-.11-.268-.226-.421-.352s-.282-.231-.422-.342h0c-.133-.1-.274-.212-.423-.321s-.283-.2-.427-.3-.277-.178-.426-.265h0c-.145-.084-.291-.164-.438-.236s-.3-.142-.452-.2-.307-.115-.473-.164q-.314-.094-.607-.2c-.191-.07-.382-.147-.568-.232s-.363-.17-.53-.261-.334-.189-.493-.293-.314-.213-.46-.328h0c-.14-.11-.275-.226-.4-.348.04.7.023,1.376,0,2.035a8.9,8.9,0,0,0,.794,4.747,3.5,3.5,0,0,0,1.49,1.609" transform="translate(177.804 1583.308)" fill="#343659"/>
    <path id="Caminho_4696" data-name="Caminho 4696" d="M429.067,867.443a9.1,9.1,0,0,0,.8-3.656,15.605,15.605,0,0,0-.425-3.749c-.061.125-.118.25-.184.375a18.174,18.174,0,0,1-2.36,3.5c-.889,1.068-1.479,1.777-2.287,5.7a8.214,8.214,0,0,1-.712,2.143,5.616,5.616,0,0,1-.3.507,13.066,13.066,0,0,0,3.408-2.107,8.24,8.24,0,0,0,2.06-2.717" transform="translate(127.787 1586.816)" fill="#315377"/>
    <path id="Caminho_4697" data-name="Caminho 4697" d="M351.656,888.617l.039.005a8.027,8.027,0,0,0,2.836.313,5.833,5.833,0,0,0,2.159-.644c.812-.416,1.437-.8,1.982-1.132a13.529,13.529,0,0,1,5.23-1.755,24.826,24.826,0,0,1,3.635-.231,4.587,4.587,0,0,0,1.815-.077c2.188-.466,4.955-2.1,5.33-4.484.176-.855.346-1.581.513-2.205-.006,0-.011.01-.017.015a17.144,17.144,0,0,1-1.856,1.4,12.861,12.861,0,0,1-5.923,1.963,15.994,15.994,0,0,1-2.409.029c-.126.008-.253.012-.382.013v-.041a18.345,18.345,0,0,1-3.969-.8c-2.957-.935-4.168.071-5.428,1.118a7.763,7.763,0,0,1-3.61,1.975,5.912,5.912,0,0,1-3.84-.345c.066.2.13.4.194.6.609,1.909,1.175,3.678,3.7,4.284" transform="translate(175.255 1575.32)" fill="#009399"/>
    <path id="Caminho_4698" data-name="Caminho 4698" d="M412.38,839.736a9.087,9.087,0,0,0-.754-.994c-.454-.523-.852-.965-1.237-1.394-.306-.341-.606-.674-.894-1a7.689,7.689,0,0,1-1.685,5.152c-.981,1.471-1.965,2.947-.921,6.635a6.1,6.1,0,0,1,.235,1.625,5.446,5.446,0,0,1-1.142,3.4,10.146,10.146,0,0,0,2.749-1.244,15.207,15.207,0,0,0,1.649-1.243,9.045,9.045,0,0,0,3.3-5.62,7.84,7.84,0,0,0-1.3-5.316" transform="translate(138.814 1601.645)" fill="#343659"/>
    <path id="Caminho_4699" data-name="Caminho 4699" d="M329.007,901.923a13.606,13.606,0,0,1-3.172-1.229,38.72,38.72,0,0,1-5.246-3.571l-.035-.027-.027-.02c-1.214-.928-2.469-1.887-3.768-2.715a19.858,19.858,0,0,0-1.9-1.081,13.429,13.429,0,0,0-1.926-.777c-.424-.132-.811-.264-1.181-.4s-.731-.287-1.1-.451-.719-.339-1.022-.5l-.016-.009c-.326-.177-.645-.367-.95-.564s-.579-.394-.85-.605-.535-.439-.785-.675c-.167-.159-.32-.323-.472-.488a29.933,29.933,0,0,0,22.447,13.121Z" transform="translate(201.044 1568.813)" fill="#315377"/>
    <path id="Caminho_4700" data-name="Caminho 4700" d="M444.406,833.758c-.041.358-.1.733-.183,1.1-.063.288-.138.558-.217.82a29.992,29.992,0,0,0,.127-25.995l.006.019c.1.353.189.715.258,1.083.075.414.129.808.163,1.187.037.419.056.829.057,1.222s-.012.827-.042,1.267-.077.878-.139,1.329l-.177,1.185-.007.046-.054.347c0,.032-.007.065-.011.1l-.657,4.8-.007.059c-.014.182-.029.378-.044.608-.012.2-.026.42-.037.671-.008.2-.016.409-.017.636s0,.43,0,.639c.006.228.015.435.03.625.016.209.038.413.067.625s.063.424.1.612l.01.052c.035.178.081.369.138.583.135.508.244.957.33,1.374s.163.849.221,1.267c0,.017,0,.034.006.052.063.459.107.886.131,1.289.026.43.034.845.025,1.237s-.035.769-.082,1.159Z" transform="translate(115.38 1618.333)" fill="#343659"/>
    <path id="Caminho_4701" data-name="Caminho 4701" d="M295.743,809.744c.055-.239.119-.469.187-.694a30,30,0,0,0-.1,26c-.033-.111-.066-.223-.1-.342l-.018-.074c-.068-.265-.129-.547-.18-.84-.057-.31-.1-.632-.131-.937v-.012c-.031-.307-.052-.619-.062-.926s-.012-.642,0-.949a2.4,2.4,0,0,1,.02-.244l.892-6.713a2.391,2.391,0,0,1,.047-.254l.077-.852q.052-.567.078-.926c.017-.256.033-.527.044-.811,0-.029,0-.057,0-.086.006-.223.011-.443.01-.664,0-.249-.006-.479-.017-.7q-.017-.352-.053-.7c-.023-.214-.054-.45-.093-.7s-.085-.5-.137-.756-.116-.538-.185-.82c-.115-.468-.205-.891-.276-1.29,0-.009,0-.017,0-.026-.071-.394-.132-.8-.18-1.2-.051-.455-.081-.847-.1-1.213-.015-.382-.015-.766,0-1.145s.046-.731.093-1.092c.042-.329.1-.681.183-1.034Z" transform="translate(209.584 1618.731)" fill="#343659"/>
    <path id="Caminho_4702" data-name="Caminho 4702" d="M306.774,776.805c.3-.289.628-.57.962-.837.362-.287.726-.554,1.084-.8.374-.25.758-.484,1.144-.7.4-.223.8-.422,1.189-.594.358-.161.737-.311,1.117-.442l.08-.03c.548-.2,1.044-.375,1.335-.482q.653-.24,1.326-.5c.452-.178.9-.358,1.326-.543s.864-.383,1.3-.591c.449-.217.881-.441,1.284-.664.386-.216.738-.425,1.068-.638l.089-.055.064-.041c.374-.245.752-.515,1.112-.8s.715-.588,1.033-.892c.15-.144.265-.254.333-.315l.026-.023c.111-.1.19-.175.251-.229s.136-.121.25-.219l.358-.3c.148-.123.264-.216.359-.29l.038-.029.048-.038q.134-.106.183-.144l.065-.049c.075-.056.157-.117.25-.184l.077-.054.239-.168c.226-.158.462-.311.7-.458s.471-.279.7-.406c.261-.139.5-.256.732-.365s.48-.211.723-.3.489-.179.716-.249.451-.129.679-.182a29.929,29.929,0,0,0-23.143,13.555l.035-.042q.413-.47.867-.9Z" transform="translate(201.475 1646.809)" fill="#009399"/>
    <path id="Caminho_4703" data-name="Caminho 4703" d="M381.582,764.815l.123.05c.328.137.65.287.967.449l.088.044c.386.2.773.427,1.151.666s.766.511,1.153.8.764.595,1.151.926l.27.232.029.024.523.443.043.038.214.178.047.04.183.153.065.052c.776.639,1.7,1.386,2.683,2.077a19.972,19.972,0,0,0,2.952,1.753c.358.17.722.326,1.087.465s.757.27,1.132.378c.482.139.9.271,1.273.4s.783.289,1.17.453.749.336,1.1.514c.294.152.575.309.84.468l.041.025.14.087c.264.165.536.35.8.549.034.023.067.047.1.072.27.205.545.435.816.683.192.177.359.346.519.513a29.933,29.933,0,0,0-22.134-13.02c.115.029.23.056.342.088a11.845,11.845,0,0,1,1.133.395Z" transform="translate(155.01 1646.721)" fill="#315377"/>
    <path id="Caminho_4704" data-name="Caminho 4704" d="M401.327,889.526c-.215.226-.441.447-.677.657q-.412.362-.87.7c-.307.225-.621.436-.937.632-.036.022-.073.044-.111.065-.288.175-.591.344-.9.5-.336.175-.686.343-1.066.513-.04.018-.081.035-.123.051l-.008,0-7.433,3.1-.008,0-.067.033c-.2.1-.383.2-.545.291s-.349.2-.529.3-.332.2-.465.288-.277.186-.412.284l-.242.175c-.034.03-.069.059-.105.088l-.073.058c-.108.086-.247.2-.392.327-.168.145-.316.277-.459.408s-.315.291-.5.464l-.132.128-.04.038c-.265.245-.529.483-.794.708-.327.279-.661.544-.989.786-.31.229-.643.458-.988.677s-.682.414-1,.583-.652.324-.988.464c-.37.152-.7.27-1.012.367-.2.062-.4.115-.6.164a29.922,29.922,0,0,0,22.466-12.867Z" transform="translate(155.79 1568.36)" fill="#009399"/>
  </g>
</svg>
