<svg xmlns="http://www.w3.org/2000/svg" width="240.715" height="266.197" viewBox="0 0 240.715 266.197">
  <path id="Caminho_3363" data-name="Caminho 3363" d="M21.821,212.29c.347,1.041.81,2.082,1.157,3.007l1.388,2.776h0c.578.925,1.041,1.851,1.619,2.66a25.747,25.747,0,0,0,2.2,2.776h0a27.654,27.654,0,0,0,2.545,2.66c.925.925,1.966,1.735,2.892,2.545a32.764,32.764,0,0,0,3.239,2.313,30.008,30.008,0,0,0,3.817,2.2h0q1.909,1.041,4.164,2.082c1.5.694,3.007,1.272,4.627,1.851s3.239,1.157,4.974,1.735a75.068,75.068,0,0,1,10.989,4.4c3.47,1.735,6.94,3.7,10.295,5.784,6.593,4.164,12.84,8.907,18.97,13.649h0l.116.116.116.116c7.866,6.015,15.616,11.914,23.6,16.078,7.75,4.049,15.731,6.593,24.06,5.784,1.157-.116,2.313-.347,3.586-.578h0c1.272-.231,2.429-.578,3.7-.925a30.925,30.925,0,0,0,3.817-1.388l3.817-1.735c1.272-.694,2.545-1.388,4.049-2.313,1.388-.925,2.776-1.851,4.049-2.776,1.388-1.041,2.776-2.082,4.164-3.239,1.157-.925,2.313-1.966,3.47-3.007l.694-.694c.925-.925,1.735-1.735,2.545-2.429s1.619-1.388,2.429-2.2c.81-.694,1.619-1.388,2.313-1.966l.347-.231h0l1.966-1.5,2.429-1.735c.81-.463,1.619-1.041,2.66-1.619s1.966-1.157,2.892-1.619,1.966-1.041,3.123-1.735h.116l.347-.116h.347l36.206-15.153.231-.116c1.5-.694,3.007-1.388,4.511-2.2a45.955,45.955,0,0,0,4.049-2.313h0a41.844,41.844,0,0,0,3.7-2.545,42.5,42.5,0,0,0,3.354-2.66,31.437,31.437,0,0,0,2.776-2.776,26.842,26.842,0,0,0,2.429-2.892c.694-.925,1.388-1.966,2.082-3.007.578-1.041,1.157-2.082,1.735-3.239a35.344,35.344,0,0,0,1.5-3.7,21.832,21.832,0,0,0,1.041-3.933,26.084,26.084,0,0,0,.694-4.164c.231-1.5.231-3.007.347-4.4,0-1.619,0-3.239-.116-4.974a43.921,43.921,0,0,0-.578-5.321v-.231h0c-.231-1.735-.578-3.586-.925-5.321-.347-1.851-.925-3.817-1.388-6.015-.347-1.272-.694-2.545-.925-3.7h0a35.405,35.405,0,0,1-.578-3.7c-.116-1.272-.347-2.429-.347-3.7-.116-1.041-.116-2.313-.231-3.586v-3.47c0-1.157,0-2.313.116-3.47.116-1.272.116-2.429.231-3.47.116-1.272.231-2.429.231-3.47v-.231h0v-.231l.116-1.157,2.545-18.855.463-3.239h0l.347-2.313v-.116l.116-1.157.694-4.4c.231-1.851.463-3.7.578-5.552s.231-3.586.231-5.205-.116-3.239-.231-4.858c-.116-1.5-.347-3.123-.578-4.627a41.525,41.525,0,0,0-.925-4.049c-.347-1.272-.81-2.545-1.272-3.817a24.274,24.274,0,0,0-1.735-3.47,19.264,19.264,0,0,0-2.082-3.239,28.159,28.159,0,0,0-2.313-2.892c-.81-.925-1.735-1.851-2.66-2.776a30.178,30.178,0,0,0-3.123-2.545h0a31.579,31.579,0,0,0-3.47-2.429l-.694-.463c-1.041-.578-2.2-1.272-3.354-1.851q-2.082-1.041-4.511-2.082c-1.619-.694-3.239-1.272-4.974-1.966-1.619-.578-3.47-1.157-5.437-1.735-2.2-.578-4.28-1.388-6.362-2.082-2.082-.81-4.049-1.619-6.015-2.545a105.544,105.544,0,0,1-15.963-9.485c-4.743-3.355-9.254-6.94-13.649-10.526h0l-.81-.694-.463-.463-.116-.116-1.157-.925-.116-.116h0L177.4,36.121l-1.272-1.041-.116-.116-1.388-1.157c-1.735-1.5-3.354-2.776-4.974-3.933s-3.239-2.313-4.858-3.355-3.123-1.851-4.627-2.66h0c-1.388-.694-2.776-1.388-4.049-1.966l-.463-.231a39.644,39.644,0,0,0-4.4-1.5c-1.388-.347-2.776-.694-4.28-.925-1.388-.231-2.776-.347-4.164-.463-1.388,0-2.776,0-4.164.116h0a22.2,22.2,0,0,0-2.545.347c-.925.116-1.735.347-2.545.463-.925.231-1.735.463-2.66.694-.81.231-1.735.578-2.66.925a28.253,28.253,0,0,0-2.776,1.157l-2.776,1.388c-.925.578-1.966,1.041-2.892,1.619s-1.966,1.157-2.892,1.851c-.347.231-.81.578-1.272.925h0c-.463.347-.925.694-1.272.925a12.69,12.69,0,0,0-1.157.925h0c-.347.231-.81.694-1.388,1.041a13.932,13.932,0,0,0-1.272,1.157,15.341,15.341,0,0,0-1.272,1.157c-.347.231-.694.694-1.272,1.157-.231.231-.694.694-1.388,1.272-1.851,1.735-3.817,3.47-5.784,5.09Q97.7,43.408,94.579,45.49l-.81.463h0c-1.851,1.157-3.817,2.313-5.784,3.47-2.2,1.272-4.511,2.429-6.709,3.47-2.313,1.041-4.511,2.082-6.709,3.007s-4.4,1.851-6.709,2.776c-2.2.925-4.4,1.735-6.593,2.545-1.388.578-3.817,1.388-6.593,2.313H54.44a38.576,38.576,0,0,0-4.627,1.851,45.993,45.993,0,0,0-4.743,2.429,38.587,38.587,0,0,0-4.627,2.892c-1.5,1.041-3.007,2.082-4.4,3.239-1.388,1.041-2.66,2.2-3.933,3.354-1.157,1.157-2.313,2.313-3.355,3.586a27.064,27.064,0,0,0-2.776,3.586c-.81,1.157-1.5,2.313-2.2,3.47A28.784,28.784,0,0,0,22.515,91.3c-.463,1.157-.694,2.429-1.041,3.586a21.484,21.484,0,0,0-.694,3.933c-.116,1.388-.347,2.66-.347,4.164v4.627c.116,1.5.231,3.123.347,4.974.231,1.735.463,3.47.81,5.205h0c.347,1.735.694,3.586,1.157,5.437.347,1.5.694,2.892,1.041,4.4.231,1.388.578,2.776.694,4.164.231,1.388.347,2.776.578,4.049.116,1.272.231,2.66.347,3.933s.116,2.545.116,3.933c0,1.272,0,2.66-.116,3.933h0v.116h0c-.116,1.5-.116,2.892-.231,4.28-.116,1.272-.231,2.776-.347,4.627l-.116,1.619-.231,2.66-.116,1.5H24.25L21.242,185.57l-1.272,9.138v3.817c0,1.272.116,2.545.231,3.817h0c.116,1.157.231,2.313.463,3.586.231,1.157.463,2.313.694,3.355h0a4.732,4.732,0,0,0,.463,3.007" transform="translate(-19.97 -18.77)" fill="#00828a"/>
</svg>
