<svg xmlns="http://www.w3.org/2000/svg" xmlns:xlink="http://www.w3.org/1999/xlink" width="155" height="1854" viewBox="0 0 155 1854">
  <defs>
    <clipPath id="clip-path">
      <rect id="Ret칙ngulo_1074" data-name="Ret칙ngulo 1074" width="155" height="1854" transform="translate(1765 1049)" fill="#fff"/>
    </clipPath>
  </defs>
  <g id="Grupo_de_m치scara_30" data-name="Grupo de m치scara 30" transform="translate(-1765 -1049)" clip-path="url(#clip-path)">
    <g id="Grupo_2027" data-name="Grupo 2027" transform="matrix(-0.998, -0.07, 0.07, -0.998, 4092.149, 3729.183)">
      <path id="Caminho_3412" data-name="Caminho 3412" d="M1567.078,2.921c-151.031,13.9-293.406,75.656-403.072,165.124a589.14,589.14,0,0,0-45.58,40.9c-68.246,57.918-156.329,121.5-241.385,167.312A1307.943,1307.943,0,0,1,613.909,482.833c-17.547,3.749-34.666,8.312-51.834,13.306C419.74,529.724,272.628,638.429,191.827,743.59c-96.083,125.772-126.889,271.14-83.443,393.03,15.682,68.542,24.383,153.09,15.791,229.841-8.689,77.614-31.15,153.081-64.763,226.161-7.789,13.946-14.53,27.8-20.794,42.028-43.2,79.937-47.53,174.219-25.954,255.021,52.822,200.4,136.864,163.647,363.944,68.492a832.4,832.4,0,0,0,124.648-65.67,338.958,338.958,0,0,1-61.912-40.39,313.726,313.726,0,0,1-32.275-31.6,319.832,319.832,0,0,1-27.169-35.479h0c-33.912-54.062-50.443-128.927-38.759-200.842a254.7,254.7,0,0,1,10.5-42.787,298.89,298.89,0,0,1,16.93-39.965c3.539-8.434,7.555-16.485,11.57-24.536h0l2.056-4.457.048-.431,1.29-2.253c6.789-14.281,12.529-28.465,17.744-42.6,2.346-7.044,4.546-12.794,6.03-16.771a136.3,136.3,0,0,0,5.029-17.106,481.1,481.1,0,0,0,16.175-79.583h0c4.3-38.375,2.685-79.621-2.983-117.08-1.18-8-2.458-15.137-3.783-21.842-1.374-6.275-2.223-12.6-4.121-18.824-24.736-71.123-18.807-151.9,15.336-229.719,6.934-15.574,14.819-30.383,23.23-45.239A459.189,459.189,0,0,1,486,837.281h0l.048-.431h0c46.848-61.5,121.87-124.3,203.2-164.65,16.5-8.347,33.389-15.449,49.128-21.592a425.779,425.779,0,0,1,49.453-15.221c8.584-2.5,17.692-5.043,28.325-7.3h0l5.865-1.394h0l3.719-.769A816.992,816.992,0,0,0,956.222,577.64c9.826-4.318,18.078-8.492,25.233-12.138,8.252-4.174,16.5-8.347,24.805-12.952h0c42.5-22.689,85.731-51.846,124.909-81.91,6.251-4.843,14.172-10.693,22.19-17.405q10.236-7.983,18.9-15.822c5.251-5.178,11.026-10.4,17.374-16.109s12.647-10.979,19.519-16.732a605.066,605.066,0,0,1,123.95-77.981c7.68-3.694,16.408-7.485,26.758-11.851a604.648,604.648,0,0,1,176.194-43.956h0c89.675-8.254,170.643,5.63,237.336,35.764a294.346,294.346,0,0,1,36.725,19.663c9.716,5.933,19.335,12.73,28.43,19.574a39.121,39.121,0,0,1,11.427,9.19l17,15.078h0l3.285,3.112-.048.431a12.2,12.2,0,0,0,1.856,1.963l.476.383s-1.332-2.011.952.766c27,23.12,57.9,43.746,92.247,61.5,5.907,2.87,12.814,6.075,21.2,10,7.908,3.539,15.34,6.7,21.771,9.518,37.731,15.3,83.095,27.344,127.843,35.6,10.15,2.053,18.824,3.388,25.973,4.437,8.149,1.383,15.822,2.384,22.971,3.433,11.344.663,22.163,1.374,33.411,2.9l6.673.666h0a25.758,25.758,0,0,0,6.673.666h0c76.586,11.3,145.473,40.379,196.891,86.429a292.051,292.051,0,0,1,27.941,28.58,278.15,278.15,0,0,1,23.884,32.368h0c33.912,54.062,50.443,128.928,38.76,200.843a254.7,254.7,0,0,1-10.5,42.787,262.305,262.305,0,0,1-17.6,41.307c-3.491,8-7.506,16.053-10.9,23.194h0c-2.008,4.025-2.008,4.025-2.629,4.936l-.048.431-1.338,2.683a501.4,501.4,0,0,0-24.208,63.253c-1.483,3.977-2.491,8.338-4.022,12.746a476,476,0,0,0-16.127,79.151h0c-4.3,38.376-2.685,79.621,2.983,117.08,1.181,8,2.458,15.137,3.783,21.843q2.061,9.412,4.121,18.824c3.23,8.237,5.362,17,7.448,26.2a27.449,27.449,0,0,1,.945,5.461,42.523,42.523,0,0,0,.946,5.461h0c12.639,63.275,3.246,133.272-29.36,201.992a392.272,392.272,0,0,1-21.6,39.968,417.628,417.628,0,0,1-27.225,39.206h0c-35.912,47.26-88.461,94.771-147.765,133.089a492.044,492.044,0,0,0,111.386,43.517c210.282,54.9,287.235,76.833,387.017-137.615,40.305-86.5,57.217-181.938,31.819-256.414a322.263,322.263,0,0,0-11.72-39.035c-17.828-67.918-23.636-141.21-14.948-218.823,8.592-76.751,36.076-164.63,68.115-237.565,71.449-132.892,73.412-275.605,3.733-385.692-58.169-92.37-184.276-175.926-321.978-183.735-16.4-1.9-32.838-3.379-49.9-3.942-85.17-8.8-167.036-28.579-244.5-59.856-76.463-30.942-152-79.466-208.561-125.9a375.815,375.815,0,0,0-37.278-33.269c-90.329-69.352-221.7-105.909-372.729-92.007" transform="matrix(-0.391, 0.921, -0.921, -0.391, 3058.595, 898.114)" fill="#179299"/>
      <path id="Caminho_3413" data-name="Caminho 3413" d="M1567.078,2.921c-151.031,13.9-293.406,75.656-403.072,165.124a589.14,589.14,0,0,0-45.58,40.9c-68.246,57.918-156.329,121.5-241.385,167.312A1307.943,1307.943,0,0,1,613.909,482.833c-17.547,3.749-34.666,8.312-51.834,13.306C419.74,529.724,272.628,638.429,191.827,743.59c-96.083,125.772-126.889,271.14-83.443,393.03,15.682,68.542,24.383,153.09,15.791,229.841-8.689,77.614-31.15,153.081-64.763,226.161-7.789,13.946-14.53,27.8-20.794,42.028-43.2,79.937-47.53,174.219-25.954,255.021,52.822,200.4,136.864,163.647,363.944,68.492a832.4,832.4,0,0,0,124.648-65.67,338.958,338.958,0,0,1-61.912-40.39,313.726,313.726,0,0,1-32.275-31.6,319.832,319.832,0,0,1-27.169-35.479h0c-33.912-54.062-50.443-128.927-38.759-200.842a254.7,254.7,0,0,1,10.5-42.787,298.89,298.89,0,0,1,16.93-39.965c3.539-8.434,7.555-16.485,11.57-24.536h0l2.056-4.457.048-.431,1.29-2.253c6.789-14.281,12.529-28.465,17.744-42.6,2.346-7.044,4.546-12.794,6.03-16.771a136.3,136.3,0,0,0,5.029-17.106,481.1,481.1,0,0,0,16.175-79.583h0c4.3-38.375,2.685-79.621-2.983-117.08-1.18-8-2.458-15.137-3.783-21.842-1.374-6.275-2.223-12.6-4.121-18.824-24.736-71.123-18.807-151.9,15.336-229.719,6.934-15.574,14.819-30.383,23.23-45.239A459.189,459.189,0,0,1,486,837.281h0l.048-.431h0c46.848-61.5,121.87-124.3,203.2-164.65,16.5-8.347,33.389-15.449,49.128-21.592a425.777,425.777,0,0,1,49.453-15.221c8.584-2.5,17.692-5.043,28.325-7.3h0l5.865-1.394h0l3.719-.769A816.989,816.989,0,0,0,956.222,577.64c9.826-4.318,18.078-8.492,25.233-12.138,8.252-4.174,16.5-8.347,24.805-12.952h0c42.5-22.689,85.731-51.846,124.909-81.91,6.251-4.843,14.172-10.693,22.19-17.405q10.236-7.983,18.9-15.822c5.251-5.178,11.026-10.4,17.374-16.109s12.647-10.979,19.519-16.732a605.066,605.066,0,0,1,123.95-77.981c7.68-3.694,16.408-7.485,26.758-11.851a604.649,604.649,0,0,1,176.194-43.956h0c89.675-8.254,170.643,5.63,237.336,35.764a294.337,294.337,0,0,1,36.725,19.663c9.716,5.933,19.335,12.73,28.43,19.574a39.124,39.124,0,0,1,11.427,9.19l17,15.078h0l3.285,3.112-.048.431a12.2,12.2,0,0,0,1.856,1.963l.476.383s-1.332-2.011.952.766c27,23.12,57.9,43.746,92.247,61.5,5.907,2.87,12.814,6.075,21.2,10,7.908,3.539,15.34,6.7,21.771,9.518,37.731,15.3,83.095,27.344,127.843,35.6,10.15,2.053,18.824,3.388,25.973,4.437,8.149,1.383,15.822,2.384,22.971,3.433,11.344.663,22.163,1.374,33.411,2.9l6.672.666h0a25.758,25.758,0,0,0,6.673.666h0c76.586,11.3,145.473,40.379,196.891,86.429a292.066,292.066,0,0,1,27.941,28.58,278.15,278.15,0,0,1,23.884,32.368h0c33.912,54.062,50.443,128.928,38.76,200.843a254.7,254.7,0,0,1-10.5,42.787,262.305,262.305,0,0,1-17.6,41.307c-3.491,8-7.506,16.053-10.9,23.194h0c-2.008,4.025-2.008,4.025-2.629,4.936l-.048.431-1.338,2.683a501.353,501.353,0,0,0-24.208,63.253c-1.483,3.977-2.49,8.337-4.022,12.746a476.007,476.007,0,0,0-16.127,79.152h0c-4.3,38.376-2.685,79.621,2.983,117.08,1.181,8,2.458,15.136,3.783,21.843q2.061,9.412,4.121,18.824c3.23,8.237,5.362,17,7.448,26.2a27.447,27.447,0,0,1,.945,5.46,42.519,42.519,0,0,0,.946,5.461h0c12.639,63.275,3.246,133.272-29.36,201.992a392.272,392.272,0,0,1-21.6,39.968,417.644,417.644,0,0,1-27.225,39.206h0c-35.912,47.26-88.461,94.771-147.765,133.089a492.038,492.038,0,0,0,111.386,43.517c210.282,54.9,287.235,76.833,387.017-137.615,40.305-86.5,57.217-181.938,31.819-256.414a322.263,322.263,0,0,0-11.72-39.035c-17.828-67.918-23.636-141.21-14.948-218.823,8.592-76.751,36.076-164.63,68.115-237.565,71.449-132.892,73.412-275.605,3.733-385.692-58.169-92.37-184.276-175.926-321.978-183.735-16.4-1.9-32.838-3.378-49.9-3.942-85.17-8.8-167.036-28.579-244.5-59.856-76.463-30.942-152-79.466-208.561-125.9a375.8,375.8,0,0,0-37.278-33.269c-90.329-69.352-221.7-105.909-372.729-92.007" transform="matrix(-0.391, 0.921, -0.921, -0.391, 2988.092, 795.167)" fill="#2f5377"/>
    </g>
  </g>
</svg>
