<svg xmlns="http://www.w3.org/2000/svg" xmlns:xlink="http://www.w3.org/1999/xlink" width="1920" height="280" viewBox="0 0 1920 280">
  <defs>
    <clipPath id="clip-path">
      <rect id="rectangle-15" width="1920" height="280" transform="translate(0 0)" fill="#014268"/>
    </clipPath>
  </defs>
  <g id="Grupo_de_máscara_37" data-name="Grupo de máscara 37" clip-path="url(#clip-path)">
    <g id="Grupo_2213" data-name="Grupo 2213" transform="translate(-440 -290.425)">
      <path id="Caminho_4460" data-name="Caminho 4460" d="M-1042.761,1312.013l-1.8.364v-.364Z" transform="translate(2769.633 -774.257)" fill="#00254c"/>
      <path id="Caminho_4461" data-name="Caminho 4461" d="M-1142.848,1329.526h5.55c-1.855.159-3.712.318-5.55.449Z" transform="translate(2585.318 -825.418)" fill="#008289"/>
      <path id="Caminho_4462" data-name="Caminho 4462" d="M-1123.558,1333.528c.083-.016.17-.035.256-.052v.052Z" transform="translate(2621.493 -836.541)" fill="#008289"/>
      <g id="Grupo_2210" data-name="Grupo 2210" transform="translate(24.295 0)">
        <path id="Caminho_4463" data-name="Caminho 4463" d="M-849.314,1654.439c-1.639-7.808-2.824-14.619-3.638-20.589-1.274-9.4-2.007-17.458-1.656-25.293a81.316,81.316,0,0,1,4.739-23.708c6.666-19.12,9.892-37.194,9.107-54.009a97.253,97.253,0,0,0-1.751-14.295h137.506v93.122c-34.624,10.54-87.263,28.254-142.469,53.047C-848.129,1659.9-848.753,1657.119-849.314,1654.439Z" transform="translate(3101.377 -1516.546)" fill="#179299"/>
        <path id="Caminho_4464" data-name="Caminho 4464" d="M-1406.567,1629.229c-110.238-7.655-198.458-60.552-229.513-81.541H-1334.7a280.684,280.684,0,0,0,66.821,86.47C-1314.212,1632.227-1362.445,1632.292-1406.567,1629.229Z" transform="translate(1636.08 -1547.688)" fill="#179299"/>
        <path id="Caminho_4465" data-name="Caminho 4465" d="M-1011.192,1114.516c33.652,78.867,41.263,183.763-88.853,251.28-47.273,24.53-82.1,37.274-111.143,44.661,3.652-42.751,14.389-87.427,31.415-133.7C-1152.4,1202.372-1087.643,1151.126-1011.192,1114.516Z" transform="translate(2432.858 -493.888)" fill="#179299"/>
        <path id="Caminho_4466" data-name="Caminho 4466" d="M-1508.031,1501.283c98.6,4.106,188.6,17.268,212.1,88.958-32.461-3.253-68.646-11.153-112.127-28.709C-1449.552,1544.777-1482.255,1523.905-1508.031,1501.283Z" transform="translate(1876.204 -1414.813)" fill="#179299"/>
        <path id="Caminho_4467" data-name="Caminho 4467" d="M-1432.828,1039.042a162.361,162.361,0,0,1,42.652,8.4,192.381,192.381,0,0,1,40.677,19.623,139.253,139.253,0,0,0,18.961,10.313,212.812,212.812,0,0,0,22.771,8.055c5.311,1.637,11.326,3.378,18.19,5.231q10.783,2.913,22.76,5.8,30.322,7.269,50.781,18.339,20.9,11.318,31.515,26.568v.023a56.711,56.711,0,0,1,9.9,30.031c.494,10.662-1.55,22.122-5.777,34.245a51.483,51.483,0,0,0-3,15.034,89.413,89.413,0,0,0,1.047,16.037c.518,3.784,1.268,8.1,2.306,13.055,1.046,4.98,2.329,10.336,3.893,16.11q5.736,21.218,1.515,38.616-4.331,17.8-19,31.587-12.836,12.057-33.229,20.681-20.053,8.48-47.443,13.689a161.158,161.158,0,0,0-33.673,10.6c-121.472-16.982-228.035-49.631-263.464-125.584-33.253-71.293,27.081-147.5,87.484-211.3.308-.081.618-.177.926-.255A163.063,163.063,0,0,1-1432.828,1039.042Z" transform="translate(1739.531 -319.273)" fill="#179299"/>
        <path id="Caminho_4468" data-name="Caminho 4468" d="M-652.053,1385.286c1.259,5.447,2.674,11.132,4.3,17.132q9.045,33.465,2.39,60.9-6.828,28.079-29.968,49.817-20.247,19.013-52.409,32.614-31.62,13.374-74.82,21.589c-21.989,4.185-42.278,11.579-61.392,20.4-19.6,9.042-38.3,19.755-56.325,30.087a343.116,343.116,0,0,1-38.615,19.084c47.7-53.108,97.364-113.814,157.091-162.893C-758.242,1438.224-704.022,1408.625-652.053,1385.286Z" transform="translate(2905.954 -1239.117)" fill="#179299"/>
        <path id="Caminho_4469" data-name="Caminho 4469" d="M-201.942,1612.081c-6.205,1.741-13.233,3.485-20.919,5.259q-6.9,1.59-14.507,3.224c-6.13,1.317-12.6,2.665-19.363,4.047-4.181.855-8.454,1.723-12.854,2.611-3.183.642-6.435,1.3-9.725,1.957q-5.322,1.069-10.829,2.179h-1.8v.365q-6.561,1.322-13.339,2.707-8.6,1.754-17.518,3.614-6.043,1.265-12.229,2.586c-15.686,3.349-31.97,6.98-48.628,10.965q-12.844,3.074-25.94,6.437c-12.9,3.326-25.943,6.89-39.02,10.712q-3.869,1.13-7.738,2.293-3.8,1.139-7.6,2.3-3.951,1.217-7.9,2.469-9.152,2.9-18.279,6-4.012,1.36-8.011,2.761-7.837,2.74-15.623,5.626-3.852,1.432-7.675,2.912c-16.911,6.491-33.531,13.557-49.64,21.271-4.238-9.936-8.888-19.46-13.73-28.443q-1.048-1.941-2.1-3.848-4.249-7.657-8.607-14.736c-.828-1.347-1.72-2.651-2.651-3.928a64.113,64.113,0,0,0-7.675-8.684c-9.052-8.59-20.98-15.228-35.288-20.289q-6.491-2.3-13.624-4.175a259.933,259.933,0,0,0-29.606-5.839q-7.237-1.029-14.86-1.815c-11.5-1.173-23.645-1.938-36.332-2.379-25.112-.872-52.339-.476-80.83.544q-8.817.313-17.788.7-5.094.218-10.237.458-4.607.213-9.247.439-3.878.187-7.775.383l-7.063.358-5.147.267c-30.017,1.564-60.753,3.325-91.337,4.622q-9.347.394-18.665.729-8.182.287-16.327.512-4.072.112-8.123.207-5.948.138-11.861.238-17.438.282-34.518.138c-17.247-.165-32.884-.813-47.132-1.892-91.8-6.944-125.849-31.788-159.524-61.409-15.329-13.488-30.589-27.961-51.183-42.191-2.542-1.756-5.159-3.508-7.873-5.254-40-25.737-83.973-37.086-125.67-39.066,52.593-85.882,48.6-164.44,33.33-211.094l-.017-.046c38.859,3.893,72.379,1.123,106.667.262,73.422,64.735,161.668,76.77,233.544,67.143,14.748,8.937,30.273,19.016,46.692,30.407,83.8,58.133,147.013,110.287,204.6,150.4,18.472,12.867,36.372,24.5,54.18,34.682,24.965,14.278,49.766,25.711,75.752,33.762q7.022,2.173,14.174,4.01a299.914,299.914,0,0,0,57.57,8.96q15.627.912,32.249.293c4.138-.153,8.313-.362,12.554-.661,1.837-.131,3.695-.29,5.55-.449a460.877,460.877,0,0,0,49.918-7.123h.256v-.052c18.021-3.549,37.008-8.228,57.159-14.138q14.975-4.393,30.862-9.729c2.484-.832,4.943-1.639,7.462-2.5,83.987-28.845,111.031-66.533,105.982-107.551a188.951,188.951,0,0,1,19.248,10.532,308.6,308.6,0,0,0,66.5,32.1,256.663,256.663,0,0,0,69.44,13.3,256.806,256.806,0,0,0,78.532-8.354A292.9,292.9,0,0,0-45.6,1491.259C-96.653,1548.094-145.456,1596.225-201.942,1612.081Z" transform="translate(1992.746 -1093.547)" fill="#179299"/>
      </g>
      <g id="Grupo_2211" data-name="Grupo 2211" transform="translate(0 0)">
        <path id="Caminho_4470" data-name="Caminho 4470" d="M-1120.614,1608.942c2.433,8.989,4.431,17.328,6.071,25.1-19.786-30.306-30.837-59.4-38.609-86.23h30.213c-.037.157-.092.311-.132.468Q-1129.628,1575.633-1120.614,1608.942Z" transform="translate(2565.994 -1547.813)" fill="#2f5377"/>
        <path id="Caminho_4471" data-name="Caminho 4471" d="M-1390.721,1309.308c44.122,3.063,92.355,3,138.691,4.929,25.776,22.622,58.479,43.494,99.975,60.249,43.48,17.556,79.666,25.456,112.127,28.709l.018.046c15.269,46.654,19.263,125.212-33.33,211.094-42.224-2.005-82.121,5.6-113.2,17.63-109.344,42.341-89.1,102.318-81.072,156.71-87.912,50.225-206.334,97.263-364.75,135.988-4.124,1.008-8.2,1.948-12.267,2.86V1227.767h24.3C-1589.179,1248.756-1500.958,1301.654-1390.721,1309.308Z" transform="translate(1644.529 -1227.767)" fill="#2f5377"/>
        <path id="Caminho_4472" data-name="Caminho 4472" d="M-1368.369,1641.812q-5.448-4.8-10.786-9.99c-49.456-48.18-36.763-111.22-8.164-165.7h459.878c-16.937,57.566-61.84,191.146-120.713,218.409-23.222,10.755-53.171,19.939-86.67,24.425C-1240.255,1645.08-1305.6,1640.236-1368.369,1641.812Z" transform="translate(2079.574 -1466.121)" fill="#2f5377"/>
        <path id="Caminho_4473" data-name="Caminho 4473" d="M-1487.064,1225.438c35.429,75.953,141.992,108.6,263.464,125.584-1.765.761-3.52,1.535-5.253,2.337-12.428,5.734-24.283,12.526-35.717,19.078a200.394,200.394,0,0,1-48.61,20.293,162.894,162.894,0,0,1-49.8,5.3,162.815,162.815,0,0,1-44.03-8.435,195.545,195.545,0,0,1-42.161-20.353c-10.918-6.9-24.18-12.3-38.273-16.825-14.541-4.672-29.873-8.41-44.5-11.914q-30.327-7.266-50.787-18.34-20.9-11.315-31.518-26.566a57.528,57.528,0,0,1-10.314-28.255q-1.332-15.11,4.676-32.62c2.317-6.753,3.68-11.784,4.2-16.858.535-5.145.247-10.427-.734-17.64-.518-3.788-1.268-8.1-2.306-13.052-1.044-4.982-2.326-10.333-3.888-16.1q-5.711-21.126-1.559-38.463,4.248-17.736,18.734-31.469,12.457-11.812,32.26-20.395,19.466-8.437,45.873-13.7a196.786,196.786,0,0,0,41.539-13.406c13.092-5.789,25.5-12.614,37.907-19.62a202.13,202.13,0,0,1,48.271-19.881C-1459.983,1077.934-1520.317,1154.144-1487.064,1225.438Z" transform="translate(1679.44 -289.225)" fill="#2f5377"/>
        <path id="Caminho_4474" data-name="Caminho 4474" d="M-996.586,1645.477q-47.825-11.459-80.094-28.924-32.961-17.845-49.708-41.9a90.729,90.729,0,0,1-16.269-44.561q-2.1-23.829,7.375-51.444c3.655-10.651,5.8-18.584,6.634-26.587.84-8.115.388-16.442-1.159-27.821-.817-5.971-2-12.78-3.637-20.587-.02-.1-.043-.2-.063-.3.233.355.443.707.676,1.062,40.084,60.815,235.465,177.836,247.534,275.848a326.679,326.679,0,0,0-41.108-16C-949.342,1656.9-973.522,1651-996.586,1645.477Z" transform="translate(2584.947 -1317.132)" fill="#2f5377"/>
        <path id="Caminho_4475" data-name="Caminho 4475" d="M-346.715,1475.92c-102.445,102.843,85.132,263.191,27.622,360.931-85.894,145.977-114.706,143.16-270.44,208.4h-555.72c-52.487-65.852-72.1-141.416-65.026-224.22,29.04-7.385,63.87-20.125,111.143-44.648,130.116-67.5,122.505-172.365,88.853-251.21,16.108-7.712,32.728-14.776,49.639-21.265q3.83-1.472,7.675-2.911,7.777-2.9,15.623-5.625,4-1.4,8.011-2.76,9.122-3.1,18.279-6,3.947-1.25,7.9-2.468,3.8-1.173,7.6-2.3,3.869-1.162,7.738-2.292c13.078-3.821,26.118-7.384,39.02-10.709q13.087-3.375,25.94-6.435c16.658-3.984,32.942-7.614,48.628-10.962q6.176-1.316,12.229-2.585,8.92-1.863,17.518-3.612,6.785-1.386,13.339-2.706l1.8-.364q5.5-1.107,10.829-2.179c3.289-.661,6.541-1.315,9.725-1.957,4.4-.887,8.672-1.756,12.854-2.61,6.76-1.382,13.233-2.729,19.364-4.045q7.613-1.635,14.507-3.223c7.686-1.773,14.714-3.517,20.919-5.257,56.486-15.851,105.289-63.969,156.338-120.789a343.071,343.071,0,0,0,38.615-19.078c18.029-10.33,36.729-21.039,56.325-30.079,19.114-8.82,39.4-16.211,61.392-20.4q43.2-8.216,74.82-21.583,32.164-13.6,52.409-32.6,23.149-21.739,29.968-49.8,6.668-27.431-2.389-60.885c-1.625-6-3.039-11.683-4.3-17.127,55.207-24.786,107.845-42.5,142.469-53.033v398.709C-107.658,1389.129-258.13,1386.992-346.715,1475.92Z" transform="translate(2456.165 -904.397)" fill="#2f5377"/>
        <path id="Caminho_4476" data-name="Caminho 4476" d="M-549.58,1424.326c-17.026,46.271-27.763,90.946-31.415,133.7-68.23,17.353-104.458,5.09-194.829,46.439-128.828,58.945-182.507,131.4-373.066,118.392-71.4-4.871-149.546-9.424-222.333-19.6a161.116,161.116,0,0,1,33.672-10.6q27.393-5.211,47.443-13.69,20.392-8.626,33.229-20.68,14.682-13.786,19-31.587,4.227-17.4-1.515-38.616c-1.564-5.774-2.847-11.13-3.893-16.11-1.038-4.952-1.789-9.271-2.306-13.055a89.437,89.437,0,0,1-1.047-16.038,51.49,51.49,0,0,1,3-15.033c4.227-12.123,6.271-23.583,5.777-34.245a56.71,56.71,0,0,0-9.9-30.032v-.023q-10.619-15.254-31.515-26.568-20.458-11.076-50.781-18.34-11.99-2.875-22.759-5.795c-6.864-1.854-12.879-3.594-18.19-5.231a212.852,212.852,0,0,1-22.771-8.055,139.161,139.161,0,0,1-18.961-10.313,192.4,192.4,0,0,0-40.677-19.623,162.379,162.379,0,0,0-42.652-8.4,163.073,163.073,0,0,0-50.212,4.884c-.308.079-.618.175-.926.255,42.505-44.9,85.048-83.66,95.026-110.221,6.263-16.674,4.943-35.031,2.13-54.069,98.915-56.511,159.191-117.054,194.272-174.341,41.7,1.98,85.667,13.329,125.671,39.066,2.714,1.746,5.331,3.5,7.873,5.254,20.594,14.23,35.855,28.7,51.184,42.191,33.675,29.621,67.721,54.466,159.524,61.409,14.248,1.079,29.885,1.727,47.132,1.892q17.054.167,34.517-.138,5.914-.1,11.861-.238,4.054-.094,8.123-.207,8.143-.224,16.327-.512,9.317-.33,18.665-.728c30.584-1.3,61.32-3.057,91.337-4.622l5.147-.266,7.063-.359q3.9-.2,7.775-.383,4.64-.227,9.247-.439,5.142-.238,10.237-.458,8.967-.386,17.788-.7c28.49-1.02,55.718-1.417,80.83-.545,12.687.441,24.836,1.206,36.332,2.379q7.634.779,14.86,1.815a259.919,259.919,0,0,1,29.606,5.839q7.125,1.881,13.624,4.175c14.309,5.061,26.236,11.7,35.288,20.289a64.109,64.109,0,0,1,7.675,8.684c.931,1.277,1.823,2.581,2.651,3.928q4.339,7.059,8.607,14.736,1.057,1.907,2.1,3.847c4.842,8.983,9.492,18.507,13.73,28.443C-457.449,1298.694-522.211,1349.939-549.58,1424.326Z" transform="translate(1827.064 -641.457)" fill="#2f5377"/>
      </g>
      <g id="Grupo_2212" data-name="Grupo 2212" transform="translate(0 0)">
        <path id="Caminho_4477" data-name="Caminho 4477" d="M-1267.511,997.519c2.812,19.038,4.132,37.4-2.131,54.069-9.978,26.562-52.521,65.32-95.026,110.221a202.149,202.149,0,0,0-48.271,19.881c-12.41,7.007-24.815,13.831-37.907,19.62a196.78,196.78,0,0,1-41.54,13.406q-26.41,5.265-45.873,13.7-19.806,8.583-32.26,20.395-14.488,13.737-18.734,31.469-4.158,17.342,1.559,38.463c1.562,5.772,2.844,11.123,3.888,16.1,1.038,4.948,1.788,9.265,2.306,13.052.98,7.214,1.268,12.5.733,17.64-.524,5.074-1.887,10.1-4.2,16.858q-6.008,17.509-4.676,32.62a57.527,57.527,0,0,0,10.314,28.255q10.619,15.255,31.518,26.566,20.462,11.076,50.787,18.34c14.625,3.5,29.957,7.242,44.5,11.914,14.093,4.528,27.355,9.925,38.273,16.825a195.551,195.551,0,0,0,42.16,20.353,162.817,162.817,0,0,0,44.03,8.435,162.89,162.89,0,0,0,49.8-5.3,200.416,200.416,0,0,0,48.61-20.293c11.433-6.552,23.289-13.344,35.717-19.078,1.734-.8,3.488-1.576,5.253-2.337,72.788,10.177,150.929,14.73,222.333,19.6,190.559,13,244.238-59.446,373.066-118.392,90.371-41.349,126.6-29.086,194.829-46.439-7.074,82.828,12.54,158.413,65.027,224.283h-1311.1V1136.367c4.063-.913,8.144-1.852,12.267-2.86C-1473.845,1094.781-1355.424,1047.744-1267.511,997.519Z" transform="translate(1644.529 -436.901)" fill="#343658"/>
        <path id="Caminho_4478" data-name="Caminho 4478" d="M-1397.174,1464.823c62.766-1.576,128.114,3.268,233.544,67.143C-1235.506,1541.593-1323.751,1529.558-1397.174,1464.823Z" transform="translate(2108.382 -1289.18)" fill="#343658"/>
        <path id="Caminho_4479" data-name="Caminho 4479" d="M-724.873,1441.331c57.51-97.767-130.067-258.16-27.622-361.031,88.585-88.953,239.057-86.815,311.215-79.715v649.2H-995.313C-839.579,1584.53-810.767,1587.348-724.873,1441.331Z" transform="translate(2861.945 -508.935)" fill="#343658"/>
        <path id="Caminho_4480" data-name="Caminho 4480" d="M-1508.946,1474.858c-8.031-54.393-28.272-114.37,81.072-156.71,31.078-12.035,70.976-19.636,113.2-17.63C-1349.755,1357.8-1410.031,1418.347-1508.946,1474.858Z" transform="translate(1885.932 -914.066)" fill="#343658"/>
        <path id="Caminho_4481" data-name="Caminho 4481" d="M-1156.466,1665.928q5.335,5.2,10.786,9.99c-34.288.86-67.807,3.631-106.667-.262-23.5-71.691-113.5-84.853-212.1-88.958a280.685,280.685,0,0,1-66.821-86.47h366.639C-1193.229,1554.708-1205.922,1617.749-1156.466,1665.928Z" transform="translate(1856.948 -1500.227)" fill="#343658"/>
        <path id="Caminho_4482" data-name="Caminho 4482" d="M-307.937,1442.328a81.312,81.312,0,0,0-4.739,23.708c-.351,7.835.383,15.894,1.656,25.293.814,5.969,2,12.781,3.638,20.588.561,2.68,1.185,5.456,1.837,8.276-51.969,23.34-106.189,52.938-149.75,88.732-59.727,49.08-109.389,109.785-157.091,162.893a292.837,292.837,0,0,1-38.052,12.923,256.8,256.8,0,0,1-78.532,8.354,256.675,256.675,0,0,1-69.441-13.3,308.575,308.575,0,0,1-66.5-32.1,188.984,188.984,0,0,0-19.248-10.532c-12.068-98.012-207.449-215.033-247.534-275.848-.233-.355-.443-.707-.676-1.062-1.639-7.774-3.638-16.112-6.07-25.1q-9-33.318-2.458-60.662c.04-.157.095-.311.132-.468h840.179a97.282,97.282,0,0,1,1.751,14.3C-298.045,1405.135-301.272,1423.208-307.937,1442.328Z" transform="translate(2583.74 -1374.024)" fill="#343658"/>
        <path id="Caminho_4483" data-name="Caminho 4483" d="M-666.979,1799.742c-2.519.865-4.978,1.672-7.462,2.5q-15.86,5.3-30.862,9.729c-20.152,5.91-39.139,10.59-57.159,14.138-.086.018-.173.037-.256.052a460.992,460.992,0,0,1-49.918,7.123h-5.55v.448c-4.241.3-8.417.508-12.554.661q-16.636.615-32.248-.293a299.911,299.911,0,0,1-57.57-8.96q-7.152-1.843-14.174-4.01c-25.986-8.052-50.787-19.485-75.752-33.762-17.808-10.183-35.708-21.816-54.18-34.682-57.585-40.111-120.8-92.265-204.6-150.4-16.419-11.391-31.944-21.471-46.692-30.408,33.5-4.485,63.448-13.67,86.67-24.424,58.873-27.263,103.777-160.843,120.713-218.409h260.756c7.772,26.826,18.823,55.925,38.609,86.23.02.1.043.2.063.3,1.636,7.806,2.821,14.615,3.637,20.587,1.547,11.379,2,19.707,1.159,27.821-.831,8-2.979,15.936-6.634,26.587q-9.471,27.616-7.375,51.444a90.732,90.732,0,0,0,16.269,44.56q16.749,24.057,49.709,41.9,32.272,17.472,80.094,28.924c23.064,5.526,47.244,11.421,70.179,18.792a326.672,326.672,0,0,1,41.108,16C-555.948,1733.209-582.992,1770.9-666.979,1799.742Z" transform="translate(2260.663 -1329.051)" fill="#343658"/>
      </g>
    </g>
  </g>
</svg>
