<svg id="Grupo_4643" data-name="Grupo 4643" xmlns="http://www.w3.org/2000/svg" width="35" height="38.49" viewBox="0 0 35 38.49">
  <g id="Grupo_1682" data-name="Grupo 1682" transform="translate(18.973 24.656)">
    <path id="Caminho_1453" data-name="Caminho 1453" d="M-3.137-3.65a3.393,3.393,0,0,0,.63-.116,2.945,2.945,0,0,0,1.5-.968A2.549,2.549,0,0,0-.442-6.362a2.975,2.975,0,0,0-.119-.795c-.1-.369-.183-.711-.243-1.032-.014.014-.026.031-.04.045a4.4,4.4,0,0,1-.339.307q-.178.144-.373.274c-.131.086-.269.169-.413.247s-.293.151-.45.22-.315.132-.49.2h0l-.181.065-.191.073-.18.069-.173.07h0l-.161.067-.037.016-.108.046-.139.06-.129.059c-.07.032-.14.065-.212.1s-.131.065-.183.093h0c-.047.024-.1.054-.158.088h0c-.047.027-.095.057-.144.089s-.093.063-.134.093h0c-.04.03-.085.065-.135.105l-.055.045-.089.078q-.081.072-.16.146c-.11.1-.223.2-.34.3s-.232.187-.341.267h0q-.179.131-.347.233t-.352.2l-.038.019h0c-.045.023-.091.04-.136.061a7.756,7.756,0,0,1,1.22.287,11.669,11.669,0,0,0,2.681.522" transform="translate(7.038 8.189)" fill="#fff"/>
  </g>
  <g id="Grupo_1683" data-name="Grupo 1683" transform="translate(13.232 5.223)">
    <path id="Caminho_1454" data-name="Caminho 1454" d="M-5.455-.106A5.252,5.252,0,0,0-9.271.4a9.1,9.1,0,0,0-2.8,2.855c-.056.084-.113.167-.169.248a10.306,10.306,0,0,1,2.2.324,4.989,4.989,0,0,0,2.449.165,10.7,10.7,0,0,1,2.46-.51A6.848,6.848,0,0,1-.517,4.665C-1.677,2.142-3.192.068-5.455-.106" transform="translate(12.239 0.237)" fill="#fff"/>
  </g>
  <g id="Grupo_1684" data-name="Grupo 1684" transform="translate(5.236 5.608)">
    <path id="Caminho_1455" data-name="Caminho 1455" d="M-5.185-.089c-1.441-.16-2.661-.295-3.9.722C-11.358,2.5-11.5,4.563-11.635,6.67a7.263,7.263,0,0,1,2.6-1.3c3.3-.965,4-2,4.818-3.208A10.828,10.828,0,0,1-2.465.045,15.867,15.867,0,0,1-5.185-.089" transform="translate(11.635 0.199)" fill="#fff"/>
  </g>
  <g id="Grupo_1685" data-name="Grupo 1685" transform="translate(5.072 11.703)">
    <path id="Caminho_1456" data-name="Caminho 1456" d="M-2.619-.3A5.721,5.721,0,0,0-4.892.875a2.9,2.9,0,0,0-.9,1.465A3.4,3.4,0,0,0-5.714,4.1a6.894,6.894,0,0,0,1.573,2.62c.258.283.527.539.795.792A10.2,10.2,0,0,1-1.961,9.031c0-.012,0-.024,0-.036.018-.168.044-.342.075-.522l.036-.2c.014-.081.025-.15.033-.2l.028-.185h0c.011-.074.021-.138.027-.185.011-.076.018-.129.023-.169s.011-.09.019-.162l.018-.155c.006-.058.011-.1.013-.134.007-.074.013-.152.018-.238h0c.006-.08.009-.149.011-.209s0-.127,0-.187,0-.113-.008-.176-.009-.111-.017-.171-.016-.121-.026-.18-.024-.132-.038-.2-.029-.14-.049-.225c-.033-.146-.062-.292-.085-.436s-.042-.282-.055-.421-.021-.276-.024-.41,0-.268.007-.4.021-.264.04-.39c0-.022.009-.044.012-.065A9.325,9.325,0,0,1-1.463-.673c-.351.126-.734.25-1.155.373" transform="translate(5.875 0.673)" fill="#fff"/>
  </g>
  <g id="Grupo_1686" data-name="Grupo 1686" transform="translate(1.6 17.139)">
    <path id="Caminho_1457" data-name="Caminho 1457" d="M-5.578-4.913a6,6,0,0,0-1.857-2.6c-.29-.274-.581-.551-.863-.86a8.636,8.636,0,0,1-1.693-2.649,8.179,8.179,0,0,1-.485.748c-1.069,1.47-1.773,1.57-2,3.635a6.146,6.146,0,0,0,.192,2.365c.548,1.849,2.156,2.4,3.81,2.963A11.116,11.116,0,0,1-5.178.243a10.727,10.727,0,0,1-.091-2.17,8.155,8.155,0,0,0-.309-2.986" transform="translate(12.517 11.024)" fill="#fff"/>
  </g>
  <g id="Grupo_1687" data-name="Grupo 1687" transform="translate(10.716 0)">
    <path id="Caminho_1458" data-name="Caminho 1458" d="M-1.86-1.566q-.388.321-.794.71A11.015,11.015,0,0,1-4.173.347c.288.024.581.056.881.09A9.926,9.926,0,0,0,1.577.06,16.474,16.474,0,0,1,8.094-1.12l-.08-.069a10.669,10.669,0,0,0-2.906-1.85A6,6,0,0,0,2.388-3.5h0a5.96,5.96,0,0,0-1.7.392,8.373,8.373,0,0,0-1.755.943q-.4.274-.788.6" transform="translate(4.173 3.513)" fill="#fff"/>
  </g>
  <g id="Grupo_1688" data-name="Grupo 1688" transform="translate(19.226 9.919)">
    <path id="Caminho_1459" data-name="Caminho 1459" d="M-5.591-6.382l-.035.2c-.016.089-.026.154-.033.2s-.014.093-.028.186h0c-.011.075-.02.136-.027.183l-.023.167c0,.036-.011.093-.02.164l-.017.154h0c-.007.06-.011.1-.013.133h0c0,.051-.01.116-.016.2,0,.072-.009.136-.012.192s0,.124-.006.178,0,.114,0,.171,0,.1.009.16.011.113.017.163.016.111.027.169c0,.027.012.059.019.088.073-.112.146-.223.22-.334a4.3,4.3,0,0,0,.953-3.048,10.627,10.627,0,0,0-.482-2.42c-.015-.047-.031-.094-.047-.141s-.026-.069-.038-.1l-.041-.12A7.654,7.654,0,0,0-7.255-13,5.5,5.5,0,0,0-11.448-14.3a8.437,8.437,0,0,0-1.1.163l.039.018c.134.069.273.148.416.237s.277.182.411.281.273.211.408.327c.091.079.184.159.279.239s.19.16.28.234.186.15.284.225.192.144.287.21.19.128.283.184.192.113.291.163h0c.1.051.2.1.3.136a3.057,3.057,0,0,0,.3.1c.151.043.3.09.443.141s.279.1.417.164.266.121.389.186.249.136.359.206.226.151.335.235a3.959,3.959,0,0,1,.3.257,3.758,3.758,0,0,1,.274.282A3.787,3.787,0,0,1-6.2-10a3.689,3.689,0,0,1,.234.375,3.637,3.637,0,0,1,.19.4,3.961,3.961,0,0,1,.142.426,4.38,4.38,0,0,1,.1.45,4.586,4.586,0,0,1,.051.46c.01.154.013.315.009.481s-.016.334-.034.5-.043.343-.075.523" transform="translate(12.546 14.32)" fill="#fff"/>
  </g>
  <g id="Grupo_1689" data-name="Grupo 1689" transform="translate(10.208 11.196)">
    <path id="Caminho_1460" data-name="Caminho 1460" d="M-.121-9.407q.033.095.072.178c.027.058.055.114.086.167h0c.032.055.065.108.1.158a2.009,2.009,0,0,0,.133.171h0c.05.058.1.111.153.16s.116.1.177.152.127.1.2.141.147.091.228.135h0c.077.042.162.084.253.125s.185.079.28.115.2.071.3.1a4.6,4.6,0,0,1,.662.266,6.577,6.577,0,0,1,.619.352c.4.254.772.539,1.144.823h0l.007.006.008.006a10.7,10.7,0,0,0,1.425.974,2.6,2.6,0,0,0,1.452.352,1.962,1.962,0,0,0,.22-.033h0a2.027,2.027,0,0,0,.223-.057c.074-.022.15-.05.228-.082s.156-.069.231-.109.156-.086.241-.14.166-.109.246-.168.166-.127.249-.2.139-.121.208-.185l.043-.042c.058-.055.109-.1.155-.145s.1-.086.146-.13.1-.083.142-.119l.022-.017,0,0,.122-.089q.075-.054.15-.1c.045-.03.1-.063.161-.1s.117-.068.173-.1.12-.065.19-.1h0l0,0,0,0,.021-.01h0l0,0,0,0,2.185-.912.012,0q.141-.062.272-.13c.085-.045.168-.091.247-.14h0c.077-.048.153-.1.226-.152s.14-.108.2-.162.116-.108.17-.166a2.256,2.256,0,0,0,.148-.175,1.994,1.994,0,0,0,.124-.183h0a1.949,1.949,0,0,0,.1-.194,2.029,2.029,0,0,0,.088-.221,2.233,2.233,0,0,0,.065-.236c.018-.083.032-.169.042-.254s.017-.18.019-.268,0-.2-.006-.3-.018-.208-.033-.318l0-.015h0c-.015-.105-.034-.213-.057-.323s-.053-.232-.087-.36c-.021-.078-.038-.153-.053-.226h0c-.014-.072-.027-.146-.037-.223s-.018-.15-.023-.22-.009-.14-.011-.22,0-.14,0-.211,0-.142.006-.208.007-.147.012-.211c0-.079.01-.146.015-.207l0-.009v-.009l0-.016.009-.067.155-1.138.027-.193h0l.022-.142,0-.009.011-.068.04-.267c.016-.114.027-.226.035-.336s.012-.219.011-.318-.006-.2-.014-.293-.022-.186-.038-.277-.035-.166-.058-.246-.05-.155-.08-.229a2.045,2.045,0,0,0-.1-.211,2.116,2.116,0,0,0-.123-.2,2.19,2.19,0,0,0-.14-.177,2.3,2.3,0,0,0-.164-.166q-.092-.085-.187-.157h0q-.1-.079-.211-.146l-.04-.025c-.063-.038-.131-.076-.2-.114s-.176-.086-.272-.127-.2-.079-.3-.115-.211-.07-.329-.1-.26-.081-.386-.129-.245-.1-.365-.156a6.515,6.515,0,0,1-.962-.57c-.284-.2-.555-.416-.822-.635h0l-.049-.042-.031-.026-.006,0-.068-.057-.009-.008h0l-.08-.068-.076-.065,0,0-.083-.07c-.1-.088-.2-.168-.3-.24s-.2-.141-.29-.2-.19-.115-.283-.164h0c-.083-.043-.165-.082-.247-.116l-.031-.013a2.762,2.762,0,0,0-.262-.091,2.166,2.166,0,0,0-.257-.058,2.112,2.112,0,0,0-.252-.028,2.1,2.1,0,0,0-.25,0h0c-.05,0-.1.01-.155.018s-.108.018-.157.029-.107.027-.16.043-.105.034-.164.057-.113.045-.167.07-.114.055-.17.085-.115.064-.172.1-.115.073-.172.112l-.079.057h0l-.076.057-.074.058h0c-.023.017-.05.04-.082.066l-.079.067-.079.069-.08.073h0l-.081.077c-.111.106-.229.208-.353.3s-.25.187-.376.269l-.045.029h0q-.171.11-.349.208-.2.112-.409.211t-.4.184c-.131.057-.268.112-.407.167s-.268.1-.4.151c-.086.032-.233.085-.395.143h0l-.006,0-.009,0c-.093.031-.187.068-.282.111s-.192.091-.288.144-.19.11-.282.173-.179.125-.268.2-.16.134-.234.2-.141.14-.205.213-.116.14-.169.213h0a2.193,2.193,0,0,0-.131.209c-.029.064-.055.131-.079.2a2.189,2.189,0,0,0-.061.218,2.383,2.383,0,0,0-.042.237c-.011.081-.018.165-.022.251s0,.183,0,.28.012.192.024.3.028.211.047.317h0q.029.159.071.331c.022.09.042.177.06.264s.032.168.045.251.023.165.032.242.014.159.018.239.006.153.006.236,0,.158,0,.238h0v.006h0c0,.09-.008.176-.014.258s-.013.169-.023.282l-.009.1L0-12.518,0-12.427H-.012l-.186,1.4-.073.552c0,.078,0,.155,0,.231s.007.153.016.228h0c.007.07.017.142.03.217s.027.14.044.2h0c.016.062.035.125.058.188" transform="translate(0.272 21.108)" fill="#fff"/>
  </g>
  <g id="Grupo_1690" data-name="Grupo 1690" transform="translate(10.117 10.037)">
    <path id="Caminho_1461" data-name="Caminho 1461" d="M-3.061-1.269l.039-.025q.126-.083.243-.174a3.341,3.341,0,0,0,.257-.219q.177-.169.353-.315t.354-.276c.118-.085.238-.166.36-.241l0,0-.2-.043a4.655,4.655,0,0,0-3.32.054A4.093,4.093,0,0,0-6.869.623c.016-.014.03-.028.047-.042A4.548,4.548,0,0,1-6.449.307q.2-.13.413-.247t.45-.22q.228-.1.49-.2l.351-.128c.121-.045.242-.09.361-.137s.232-.093.353-.144h0c.12-.052.236-.1.345-.156h0q.163-.077.322-.166c.106-.059.208-.119.3-.181" transform="translate(6.869 2.846)" fill="#fff"/>
  </g>
  <g id="Grupo_1691" data-name="Grupo 1691" transform="translate(0.087 6.265)">
    <path id="Caminho_1462" data-name="Caminho 1462" d="M-.449-3.031A6.372,6.372,0,0,0-1-.61,11.112,11.112,0,0,0-.645,2.474,11.48,11.48,0,0,1-.3,4.7c.019.368.016.744,0,1.15.457-.717.9-.933,1.575-1.979A9.309,9.309,0,0,0,2.483-.893C2.61-2.9,2.74-4.879,4.265-6.8A9.655,9.655,0,0,0,1.485-5.243,7.536,7.536,0,0,0-.449-3.031" transform="translate(1.007 6.801)" fill="#fff"/>
  </g>
  <g id="Grupo_1692" data-name="Grupo 1692" transform="translate(20.833 4.15)">
    <path id="Caminho_1463" data-name="Caminho 1463" d="M-6.405-5.672h0l-.012-.054a10.842,10.842,0,0,0-1.5-4.047,6.063,6.063,0,0,0-3.337-2.674,7.93,7.93,0,0,0-3.116-.225c4.5,1.184,6,7.842,6.813,10.216A11.415,11.415,0,0,0-5.284.6c.3.339.618.688.891,1a7.973,7.973,0,0,1,.644.85A6.869,6.869,0,0,1-2.626,7.081c.107-.18.216-.372.333-.591a5.453,5.453,0,0,0,.682-3A5.876,5.876,0,0,0-2.752.528,6.6,6.6,0,0,0-3.954-.7L-3.97-.708c-1.679-1.426-1.962-2.754-2.363-4.63Z" transform="translate(14.372 12.728)" fill="#fff"/>
  </g>
  <g id="Grupo_1693" data-name="Grupo 1693" transform="translate(12.66 34.281)">
    <path id="Caminho_1464" data-name="Caminho 1464" d="M-8.134-1.29A12.483,12.483,0,0,1-6.823-2.415c.231-.166.471-.322.737-.479h0c-3.3.012-4.261.6-5.4,1.3-.4.242-.847.518-1.522.864a5.881,5.881,0,0,1-2.176.644,7.387,7.387,0,0,1-2.634-.27v0c-.151-.037-.293-.078-.431-.121a8.107,8.107,0,0,0,5.236,1.776A6.356,6.356,0,0,0-10.624.557,11.092,11.092,0,0,0-8.134-1.29" transform="translate(18.251 2.894)" fill="#fff"/>
  </g>
  <g id="Grupo_1694" data-name="Grupo 1694" transform="translate(28.976 6.255)">
    <path id="Caminho_1465" data-name="Caminho 1465" d="M-4.735-4.3a5.876,5.876,0,0,0-.972-2.357A6.4,6.4,0,0,0-7.562-8.369,11.266,11.266,0,0,0-10.441-9.6c-.063-.018-.122-.042-.184-.061A12.655,12.655,0,0,1-9.073-5.35l.012.054v0l.072.337c.327,1.528.558,2.61,1.771,3.641L-7.2-1.3A8.043,8.043,0,0,1-5.7.251,8.939,8.939,0,0,1-5.069,1.28l.118-.865c.052-.38.085-.6.119-.824.048-.315.1-.635.116-.784A9.754,9.754,0,0,0-4.735-4.3" transform="translate(10.625 9.658)" fill="#fff"/>
  </g>
  <g id="Grupo_1695" data-name="Grupo 1695" transform="translate(0 24.002)">
    <path id="Caminho_1466" data-name="Caminho 1466" d="M-.194-2.526A5.717,5.717,0,0,0,.657-.669,6.3,6.3,0,0,0,2.406.982,10.7,10.7,0,0,0,5.094,2.2a16.992,16.992,0,0,1,5.073,2.958,9.906,9.906,0,0,1-.914-2.227A6.31,6.31,0,0,0,7.764.089,8.369,8.369,0,0,0,4.635-1.48C2.538-2.2.5-2.893-.311-5.627c0-.013-.006-.027-.009-.04l-.11.829A8.153,8.153,0,0,0-.194-2.526" transform="translate(0.435 5.667)" fill="#fff"/>
  </g>
  <g id="Grupo_1696" data-name="Grupo 1696" transform="translate(9.866 24.706)">
    <path id="Caminho_1467" data-name="Caminho 1467" d="M-1.311-4.775a2.9,2.9,0,0,0,1.9.146A4.395,4.395,0,0,0,2.56-5.74,7.206,7.206,0,0,1,4.046-6.774c-.078-.016-.157-.032-.236-.053a4.2,4.2,0,0,1-.434-.14,4.606,4.606,0,0,1-.422-.186c-.138-.069-.279-.147-.421-.234s-.275-.177-.416-.28-.28-.212-.415-.327c-.092-.078-.19-.16-.3-.249s-.2-.164-.3-.242h0Q.965-8.6.807-8.712c-.1-.073-.2-.144-.3-.212s-.2-.126-.3-.188h0C.1-9.171,0-9.227-.107-9.278s-.213-.1-.32-.143S-.644-9.5-.761-9.537c-.148-.044-.292-.092-.43-.143s-.271-.1-.4-.164-.257-.121-.375-.185-.237-.134-.349-.207-.222-.151-.326-.233h0c-.1-.077-.194-.16-.285-.246.028.5.016.974,0,1.441a6.3,6.3,0,0,0,.562,3.36A2.475,2.475,0,0,0-1.311-4.775" transform="translate(2.941 10.715)" fill="#fff"/>
  </g>
  <g id="Grupo_1697" data-name="Grupo 1697" transform="translate(30.475 23.209)">
    <path id="Caminho_1468" data-name="Caminho 1468" d="M-3.112-4.214A6.444,6.444,0,0,0-2.546-6.8a11.056,11.056,0,0,0-.3-2.654c-.043.089-.084.177-.131.266A12.881,12.881,0,0,1-4.648-6.71c-.629.756-1.047,1.258-1.619,4.036a5.786,5.786,0,0,1-.5,1.517A4.113,4.113,0,0,1-6.982-.8,9.286,9.286,0,0,0-4.57-2.291,5.835,5.835,0,0,0-3.112-4.214" transform="translate(6.982 9.455)" fill="#fff"/>
  </g>
  <g id="Grupo_1698" data-name="Grupo 1698" transform="translate(10.393 27.865)">
    <path id="Caminho_1469" data-name="Caminho 1469" d="M-2.216-5.811l.028,0a5.675,5.675,0,0,0,2.007.222,4.125,4.125,0,0,0,1.529-.456c.574-.294,1.017-.565,1.4-.8a9.583,9.583,0,0,1,3.7-1.242A17.63,17.63,0,0,1,9.026-8.25,3.24,3.24,0,0,0,10.311-8.3c1.548-.33,3.508-1.488,3.773-3.175.125-.6.245-1.119.364-1.561l-.012.011a12.14,12.14,0,0,1-1.314.989A9.1,9.1,0,0,1,8.929-10.65a11.246,11.246,0,0,1-1.705.021c-.089.006-.18.009-.271.009v-.029a12.958,12.958,0,0,1-2.81-.564A3.4,3.4,0,0,0,.3-10.421a5.5,5.5,0,0,1-2.555,1.4,4.185,4.185,0,0,1-2.718-.244q.07.213.137.424c.432,1.351.832,2.6,2.62,3.033" transform="translate(4.973 13.04)" fill="#fff"/>
  </g>
  <g id="Grupo_1699" data-name="Grupo 1699" transform="translate(25.81 17.063)">
    <path id="Caminho_1470" data-name="Caminho 1470" d="M-3.641-1.929a6.351,6.351,0,0,0-.534-.7c-.322-.37-.6-.683-.876-.987-.217-.241-.429-.477-.633-.709A5.441,5.441,0,0,1-6.876-.681c-.694,1.042-1.391,2.087-.652,4.7a4.315,4.315,0,0,1,.166,1.15A3.856,3.856,0,0,1-8.17,7.572a7.174,7.174,0,0,0,1.946-.88,10.78,10.78,0,0,0,1.167-.879A6.407,6.407,0,0,0-2.724,1.835a5.55,5.55,0,0,0-.917-3.763" transform="translate(8.17 4.328)" fill="#fff"/>
  </g>
</svg>
