<svg xmlns="http://www.w3.org/2000/svg" width="50" height="50" viewBox="0 0 50 50">
  <g id="instagram-sketched" transform="translate(-0.449)">
    <path id="Caminho_4532" data-name="Caminho 4532" d="M50.321,14.7a18.267,18.267,0,0,0-1.162-6.066,12.809,12.809,0,0,0-7.318-7.316A18.324,18.324,0,0,0,35.775.156C33.1.029,32.248,0,25.458,0s-7.64.029-10.307.147A18.282,18.282,0,0,0,9.085,1.309,12.2,12.2,0,0,0,4.649,4.2,12.31,12.31,0,0,0,1.767,8.625,18.316,18.316,0,0,0,.605,14.69C.478,17.367.449,18.217.449,25.005S.478,32.643.6,35.31a18.266,18.266,0,0,0,1.163,6.066,12.807,12.807,0,0,0,7.317,7.316,18.326,18.326,0,0,0,6.067,1.162c2.667.118,3.517.147,10.307.147s7.64-.029,10.307-.147a18.272,18.272,0,0,0,6.067-1.162,12.79,12.79,0,0,0,7.318-7.316A18.328,18.328,0,0,0,50.3,35.31c.117-2.667.147-3.516.147-10.3s-.01-7.638-.127-10.3Zm-4.5,20.414a13.7,13.7,0,0,1-.86,4.64A8.3,8.3,0,0,1,40.21,44.5a13.758,13.758,0,0,1-4.64.859c-2.638.118-3.429.147-10.1.147s-7.474-.029-10.1-.147a13.7,13.7,0,0,1-4.64-.859,7.7,7.7,0,0,1-2.872-1.866,7.773,7.773,0,0,1-1.866-2.871,13.753,13.753,0,0,1-.859-4.64c-.118-2.637-.147-3.429-.147-10.1s.029-7.472.147-10.1a13.7,13.7,0,0,1,.859-4.64A7.6,7.6,0,0,1,7.864,7.414a7.763,7.763,0,0,1,2.872-1.865,13.768,13.768,0,0,1,4.64-.86c2.638-.117,3.429-.147,10.1-.147s7.474.029,10.1.147a13.71,13.71,0,0,1,4.64.86,7.69,7.69,0,0,1,2.872,1.865,7.772,7.772,0,0,1,1.866,2.872,13.758,13.758,0,0,1,.86,4.64c.117,2.637.147,3.428.147,10.1s-.029,7.453-.147,10.09Zm0,0" fill="#fff"/>
    <path id="Caminho_4533" data-name="Caminho 4533" d="M137.8,124.5a12.844,12.844,0,1,0,12.849,12.844A12.85,12.85,0,0,0,137.8,124.5Zm0,21.176a8.332,8.332,0,1,1,8.335-8.332A8.335,8.335,0,0,1,137.8,145.676Zm0,0" transform="translate(-112.34 -112.339)" fill="#fff"/>
    <path id="Caminho_4534" data-name="Caminho 4534" d="M368.447,91.6a3,3,0,1,1-3-3A3,3,0,0,1,368.447,91.6Zm0,0" transform="translate(-326.635 -79.948)" fill="#fff"/>
  </g>
</svg>
