<svg id="Grupo_1681" data-name="Grupo 1681" xmlns="http://www.w3.org/2000/svg" xmlns:xlink="http://www.w3.org/1999/xlink" width="336.144" height="136.095" viewBox="0 0 336.144 136.095">
  <defs>
    <clipPath id="clip-path">
      <path id="Caminho_1409" data-name="Caminho 1409" d="M0,35.222H336.144v-136.1H0Z" transform="translate(0 100.873)" fill="#fff"/>
    </clipPath>
  </defs>
  <g id="Grupo_1628" data-name="Grupo 1628" clip-path="url(#clip-path)">
    <g id="Grupo_1608" data-name="Grupo 1608" transform="translate(67.456 87.457)">
      <path id="Caminho_1389" data-name="Caminho 1389" d="M3.485,4.055a11.724,11.724,0,0,0,2.174-.4A10.142,10.142,0,0,0,10.834.311a8.777,8.777,0,0,0,1.952-5.619,10.313,10.313,0,0,0-.41-2.744c-.362-1.274-.631-2.453-.839-3.562-.049.05-.09.107-.14.157A14.73,14.73,0,0,1,10.226-10.4q-.613.5-1.288.946c-.451.3-.926.583-1.423.854s-1.013.521-1.553.76c-.523.231-1.089.456-1.692.673v0c-.31.112-.513.183-.623.225l-.66.251c-.243.092-.444.17-.619.239l-.6.24h0c-.167.067-.355.144-.556.231l-.13.053-.372.161-.48.208-.447.2c-.24.112-.483.227-.73.347s-.453.224-.634.32h0c-.161.084-.341.186-.545.3h0c-.162.1-.327.2-.5.309s-.321.216-.463.32l0,0c-.14.105-.3.225-.465.364l-.192.157c-.094.081-.2.171-.306.268q-.279.249-.55.5c-.379.358-.77.706-1.172,1.04s-.8.645-1.181.92h0q-.619.449-1.2.805c-.4.246-.807.475-1.214.681l-.132.067h-.005c-.155.077-.312.139-.467.21a26.8,26.8,0,0,1,4.211.988,40.255,40.255,0,0,0,9.255,1.8" transform="translate(9.981 11.614)" fill="#fff"/>
    </g>
    <g id="Grupo_1609" data-name="Grupo 1609" transform="translate(47.344 18.031)">
      <path id="Caminho_1390" data-name="Caminho 1390" d="M6.061.118C1.1-.788-3.7-.406-7.111,1.862a31.379,31.379,0,0,0-9.664,9.856q-.293.433-.584.857a35.571,35.571,0,0,1,7.594,1.117c3.083.683,6.066,1.342,8.455.568A37.011,37.011,0,0,1,7.184,12.5a23.639,23.639,0,0,1,15.923,4.084C19.1,7.877,13.872.718,6.061.118" transform="translate(17.359 0.337)" fill="#fff"/>
    </g>
    <g id="Grupo_1610" data-name="Grupo 1610" transform="translate(18.48 19.358)">
      <path id="Caminho_1391" data-name="Caminho 1391" d="M5.762.1C.789-.453-3.423-.92-7.7,2.591c-7.841,6.43-8.334,13.566-8.8,20.839a25.1,25.1,0,0,1,8.991-4.49C3.889,15.61,6.3,12.047,9.123,7.867A37.325,37.325,0,0,1,15.154.56,54.941,54.941,0,0,1,5.762.1" transform="translate(16.502 0.283)" fill="#fff"/>
    </g>
    <g id="Grupo_1611" data-name="Grupo 1611" transform="translate(17.508 41.711)">
      <path id="Caminho_1392" data-name="Caminho 1392" d="M2.91.333A19.742,19.742,0,0,0-4.94,4.39,10.009,10.009,0,0,0-8.051,9.445a11.734,11.734,0,0,0,.274,6.086,23.779,23.779,0,0,0,5.429,9.044c.889.978,1.819,1.861,2.743,2.735a35.177,35.177,0,0,1,4.784,5.233c0-.042,0-.082.008-.125.062-.579.151-1.181.26-1.8l.123-.7c.049-.281.088-.518.113-.673l.1-.638h0c.038-.256.07-.476.093-.64.035-.263.061-.447.078-.581s.039-.31.069-.56c.026-.231.046-.418.059-.534.022-.2.038-.36.047-.46.022-.256.043-.528.062-.823h0c.019-.274.031-.514.038-.722.007-.224.008-.438.005-.644,0-.189-.013-.391-.028-.61-.012-.188-.032-.383-.057-.588s-.057-.417-.09-.619c-.04-.233-.084-.459-.13-.683s-.1-.482-.17-.774q-.172-.759-.294-1.5c-.08-.484-.143-.971-.19-1.453s-.073-.951-.084-1.417,0-.927.024-1.364c.027-.463.073-.913.136-1.346.011-.076.032-.151.045-.228a32.169,32.169,0,0,1,1.5-14C5.685-.521,4.361-.092,2.91.333" transform="translate(8.333 0.954)" fill="#fff"/>
    </g>
    <g id="Grupo_1612" data-name="Grupo 1612" transform="translate(5.522 61.195)">
      <path id="Caminho_1393" data-name="Caminho 1393" d="M6.2,5.46C4.812,1.241,2.324-1.116-.211-3.522c-1-.946-2.008-1.9-2.978-2.968a29.752,29.752,0,0,1-5.845-9.146,28.677,28.677,0,0,1-1.674,2.584C-14.4-7.977-16.828-7.631-17.62-.5a21.2,21.2,0,0,0,.662,8.162c1.89,6.383,7.445,8.28,13.153,10.228C.125,19.229,4.111,20.6,7.581,23.258a37.047,37.047,0,0,1-.316-7.492A28.126,28.126,0,0,0,6.2,5.46" transform="translate(17.752 15.636)" fill="#fff"/>
    </g>
    <g id="Grupo_1613" data-name="Grupo 1613" transform="translate(38.374 0)">
      <path id="Caminho_1394" data-name="Caminho 1394" d="M2.067,1.74Q.725,2.847-.675,4.19A37.969,37.969,0,0,1-5.919,8.341c.994.084,2,.193,3.042.309,4.725.523,10.1,1.12,16.808-1.3,9.222-3.324,16.556-4.437,22.493-4.072l-.275-.237A36.878,36.878,0,0,0,26.117-3.346,20.7,20.7,0,0,0,16.728-4.93h-.009a20.631,20.631,0,0,0-5.874,1.352A28.865,28.865,0,0,0,4.787-.322Q3.421.621,2.067,1.74" transform="translate(5.919 4.983)" fill="#fff"/>
    </g>
    <g id="Grupo_1614" data-name="Grupo 1614" transform="translate(68.455 35.389)">
      <path id="Caminho_1395" data-name="Caminho 1395" d="M6.213,7.092l-.12.7c-.054.309-.09.529-.115.68-.016.1-.051.322-.1.644h0c-.038.258-.069.471-.092.634-.035.255-.061.447-.08.577s-.038.318-.067.567l-.059.532v0c-.023.208-.038.359-.047.461h0c-.013.174-.034.4-.055.7-.018.248-.032.468-.04.661-.011.221-.018.428-.02.617s0,.393,0,.59c.005.162.015.345.032.553s.035.39.057.564.055.382.092.58c.018.094.042.2.065.3q.376-.581.761-1.154c1.843-2.764,3.682-5.522,3.288-10.522A36.714,36.714,0,0,0,8.052-3.572C8-3.734,7.946-3.9,7.89-4.059c-.045-.12-.089-.24-.131-.36l-.142-.414A26.412,26.412,0,0,0,.47-15.763,18.989,18.989,0,0,0-14-20.234a29.511,29.511,0,0,0-3.791.564c.045.022.09.039.134.061q.7.356,1.438.82c.483.3.957.627,1.421.97s.942.726,1.407,1.127c.316.271.634.546.963.824s.657.553.967.807.644.518.981.776.662.5.99.723.657.441.975.635.664.389,1.005.563h0c.34.174.681.332,1.02.467a10.645,10.645,0,0,0,1.048.362q.781.223,1.531.488c.482.169.962.359,1.44.567s.919.417,1.344.64c.445.233.859.471,1.237.712q.593.374,1.158.811t1.051.888a13.4,13.4,0,0,1,.944.974,13.025,13.025,0,0,1,.831,1.051A13.089,13.089,0,0,1,4.9-4.11a12.962,12.962,0,0,1,.653,1.386,13.236,13.236,0,0,1,.492,1.471A14.914,14.914,0,0,1,6.386.3q.125.779.177,1.587c.034.533.043,1.089.028,1.662S6.537,4.7,6.474,5.285s-.148,1.185-.26,1.807" transform="translate(17.794 20.31)" fill="#fff"/>
    </g>
    <g id="Grupo_1615" data-name="Grupo 1615" transform="translate(36.705 40.263)">
      <path id="Caminho_1396" data-name="Caminho 1396" d="M.135,10.453q.115.326.247.614c.092.2.192.393.3.576h0c.109.189.225.372.348.546q.217.308.46.588h0c.171.2.349.383.529.553q.293.275.61.525c.213.165.441.328.681.486s.509.314.788.467h0c.267.146.561.29.874.432s.637.274.967.4.685.246,1.042.356a15.736,15.736,0,0,1,2.285.92A22.518,22.518,0,0,1,11.4,18.129c1.378.878,2.666,1.861,3.948,2.841l.008,0,.026.02.027.022a36.89,36.89,0,0,0,4.919,3.362,8.967,8.967,0,0,0,5.012,1.214,6.88,6.88,0,0,0,.758-.112h0a7.657,7.657,0,0,0,.77-.194c.255-.078.518-.174.787-.285s.541-.24.8-.375.54-.3.834-.484.573-.378.846-.58.573-.44.862-.685c.24-.2.479-.418.718-.641l.148-.142c.2-.19.375-.356.532-.5s.329-.3.5-.448.337-.286.49-.409l.074-.058-.005-.009.422-.306c.17-.123.343-.243.517-.355q.235-.156.553-.345c.205-.121.4-.236.6-.343s.413-.223.657-.349l.005,0,.013-.005.009-.008.073-.034.011,0,.016-.008.018-.008L43.9,15.753l.043-.018q.484-.217.938-.451c.3-.154.58-.314.851-.483l0,0c.266-.166.528-.341.78-.526s.484-.372.7-.559.4-.372.588-.573a7.627,7.627,0,0,0,.51-.6,6.83,6.83,0,0,0,.428-.634h0a6.836,6.836,0,0,0,.355-.669,6.918,6.918,0,0,0,.3-.761,7.59,7.59,0,0,0,.223-.814,8.666,8.666,0,0,0,.146-.88q.057-.47.066-.926c.007-.328,0-.675-.022-1.038s-.061-.72-.112-1.1l-.007-.05V5.669c-.051-.364-.117-.735-.2-1.114s-.181-.8-.3-1.243c-.07-.267-.132-.528-.182-.781h0c-.05-.248-.092-.5-.128-.772S48.817,1.242,48.8,1s-.03-.483-.036-.757c-.007-.243-.008-.484-.005-.727s.012-.491.022-.719c.011-.268.026-.507.039-.729.019-.274.036-.5.053-.714l.005-.032,0-.023v-.008l.007-.053L48.917-3l.536-3.927.092-.666h0l.074-.492.005-.032.036-.233L49.8-9.27c.054-.394.094-.783.121-1.163s.039-.756.038-1.1-.019-.684-.049-1.012-.074-.644-.131-.955c-.054-.291-.123-.576-.2-.85a7.988,7.988,0,0,0-.275-.788,7.231,7.231,0,0,0-.351-.73,6.958,6.958,0,0,0-.422-.676q-.229-.32-.486-.613a8.028,8.028,0,0,0-.565-.572c-.212-.194-.428-.376-.646-.541h0c-.24-.182-.483-.351-.727-.5l-.139-.088c-.217-.131-.452-.262-.7-.391q-.445-.229-.939-.44c-.331-.14-.676-.275-1.032-.4s-.729-.243-1.135-.359c-.456-.131-.9-.281-1.332-.445s-.847-.343-1.261-.54A22.436,22.436,0,0,1,36.238-23.4c-.981-.692-1.917-1.437-2.836-2.194h0l-.171-.144-.107-.09-.02-.016-.235-.2-.031-.026,0-.005-.277-.232-.263-.225-.018-.013-.285-.244c-.352-.3-.7-.579-1.027-.828s-.673-.486-1-.7-.654-.4-.978-.565h0q-.429-.225-.853-.4l-.108-.045c-.317-.127-.619-.233-.9-.316a8.313,8.313,0,0,0-.888-.2,7.016,7.016,0,0,0-.872-.094,7.373,7.373,0,0,0-.862.011h-.013c-.174.013-.351.035-.537.062s-.371.063-.541.1-.37.092-.55.148-.364.119-.565.2-.387.157-.577.243-.391.189-.586.293-.4.223-.594.341-.4.252-.594.389c-.072.049-.162.113-.275.194h0c-.1.074-.189.139-.264.2-.039.028-.124.1-.255.2h0c-.078.061-.174.138-.283.229s-.2.166-.273.228c-.12.105-.213.185-.273.239s-.148.134-.277.252h0c-.057.051-.151.143-.281.266a15.687,15.687,0,0,1-1.216,1.051q-.644.506-1.3.93l-.155.1h-.005q-.589.378-1.2.719-.7.389-1.41.73t-1.394.635c-.453.194-.924.386-1.4.576s-.926.355-1.378.522c-.3.109-.8.293-1.363.492h0v0l-.02.007-.032.011c-.318.108-.646.236-.974.383s-.664.313-.994.5-.654.382-.974.6S3.31-18.65,3-18.4c-.282.227-.553.461-.808.7s-.488.484-.707.734a9.364,9.364,0,0,0-.583.737h0a7.819,7.819,0,0,0-.453.722,7.42,7.42,0,0,0-.271.691,7.783,7.783,0,0,0-.212.754c-.061.267-.109.541-.144.818s-.062.568-.074.865q-.016.47,0,.967c.013.322.042.664.082,1.027S-.07-9.659,0-9.3H0c.065.367.148.747.244,1.143.077.31.146.613.206.911s.111.58.157.865.081.569.109.836.05.549.063.826c.012.256.02.529.02.814s0,.546-.015.823h0l0,.022h0c-.012.31-.03.606-.049.893-.019.255-.046.581-.081.973L.619-.846.568-.284.54.029H.513L-.128,4.855l-.254,1.9c-.008.27-.007.537,0,.8s.027.529.054.788v0c.023.24.059.491.105.749s.1.484.154.7v0c.057.213.123.432.2.65" transform="translate(0.387 29.937)" fill="#fff"/>
    </g>
    <g id="Grupo_1616" data-name="Grupo 1616" transform="translate(35.929 35.573)">
      <path id="Caminho_1397" data-name="Caminho 1397" d="M3.4,1.41l.134-.086c.289-.192.569-.391.839-.6.308-.239.6-.492.885-.758Q5.873-.615,6.476-1.12c.407-.34.816-.66,1.222-.953s.822-.573,1.244-.832a.032.032,0,0,0,.015-.008l-.68-.148C4.385-3.922.33-4.821-3.182-2.873-7.425-.517-9.131,3.895-9.742,7.94c.057-.049.1-.1.161-.146a15.746,15.746,0,0,1,1.288-.946q.676-.447,1.423-.854c.5-.267,1.015-.522,1.553-.76s1.089-.456,1.692-.673c.3-.108.654-.236,1.213-.443.417-.154.835-.312,1.247-.474q.589-.231,1.217-.5h0c.414-.178.814-.358,1.191-.538h0q.561-.269,1.112-.572c.367-.2.718-.41,1.048-.625" transform="translate(9.742 4.037)" fill="#fff"/>
    </g>
    <g id="Grupo_1617" data-name="Grupo 1617" transform="translate(0.299 22.411)">
      <path id="Caminho_1398" data-name="Caminho 1398" d="M.5,3.368a21.983,21.983,0,0,0-1.9,8.355A38.342,38.342,0,0,0-.179,22.369a39.714,39.714,0,0,1,1.2,7.69c.065,1.272.057,2.57,0,3.969,1.576-2.476,3.117-3.219,5.436-6.831,3.458-5.393,3.813-10.962,4.162-16.452.441-6.931.889-13.756,6.155-20.391a33.335,33.335,0,0,0-9.6,5.378A26.057,26.057,0,0,0,.5,3.368" transform="translate(1.428 9.646)" fill="#fff"/>
    </g>
    <g id="Grupo_1618" data-name="Grupo 1618" transform="translate(74.853 14.326)">
      <path id="Caminho_1399" data-name="Caminho 1399" d="M7.117,6.3h0l-.04-.189C6.069,1.473,5.107-2.975,1.892-7.852c-2.608-3.953-6.075-7.589-11.519-9.23a27.41,27.41,0,0,0-10.756-.777C-4.845-13.772.311,9.212,3.136,17.406c1.016,2.944,4.212,6.5,7.852,10.553,1.05,1.168,2.132,2.375,3.077,3.459a26.971,26.971,0,0,1,2.221,2.934,23.711,23.711,0,0,1,3.878,15.973c.368-.622.747-1.284,1.151-2.043a18.839,18.839,0,0,0,2.353-10.351,20.29,20.29,0,0,0-3.94-10.224,22.84,22.84,0,0,0-4.15-4.223l-.057-.047C9.728,18.515,8.747,13.93,7.364,7.455Z" transform="translate(20.383 18.052)" fill="#fff"/>
    </g>
    <g id="Grupo_1619" data-name="Grupo 1619" transform="translate(45.329 121.567)">
      <path id="Caminho_1400" data-name="Caminho 1400" d="M9.038,1.433a42.771,42.771,0,0,1,4.526-3.884c.795-.573,1.626-1.11,2.545-1.653H16.1C4.7-4.062,1.4-2.034-2.543.375-3.908,1.209-5.469,2.164-7.8,3.357A20.276,20.276,0,0,1-15.307,5.58,25.5,25.5,0,0,1-24.4,4.647l0-.011c-.522-.127-1.012-.27-1.488-.418,5.7,3.868,11.576,6.712,18.075,6.131A21.936,21.936,0,0,0,.443,7.808a38.378,38.378,0,0,0,8.6-6.375" transform="translate(25.885 4.104)" fill="#fff"/>
    </g>
    <g id="Grupo_1620" data-name="Grupo 1620" transform="translate(102.961 22.324)">
      <path id="Caminho_1401" data-name="Caminho 1401" d="M5.262,4.783A20.3,20.3,0,0,0,1.908-3.353a22.113,22.113,0,0,0-6.4-5.9,38.827,38.827,0,0,0-9.937-4.238c-.217-.063-.421-.147-.635-.212C-11.8-8.327-10.758-3.667-9.713,1.174l.043.188v.012l.248,1.163C-8.293,7.812-7.5,11.548-3.308,15.105l.057.049A27.841,27.841,0,0,1,1.933,20.5a31.23,31.23,0,0,1,2.178,3.554l.406-2.987c.179-1.311.294-2.074.41-2.844.165-1.087.332-2.194.4-2.706A33.681,33.681,0,0,0,5.262,4.783" transform="translate(15.069 13.698)" fill="#fff"/>
    </g>
    <g id="Grupo_1621" data-name="Grupo 1621" transform="translate(0 86.084)">
      <path id="Caminho_1402" data-name="Caminho 1402" d="M.215,2.806A19.7,19.7,0,0,0,3.154,9.215a21.745,21.745,0,0,0,6.039,5.7,36.876,36.876,0,0,0,9.277,4.192c6.368,1.97,11.982,6.009,17.511,10.211a34.242,34.242,0,0,1-3.154-7.686c-1.1-3.444-2.257-7.063-5.142-9.8-2.843-2.7-6.856-4.07-10.8-5.416C9.646,3.945,2.607,1.541-.188-7.9c-.013-.043-.02-.093-.032-.138L-.6-5.174a28.131,28.131,0,0,0,.816,7.98" transform="translate(0.617 8.037)" fill="#fff"/>
    </g>
    <g id="Grupo_1622" data-name="Grupo 1622" transform="translate(35.089 87.752)">
      <path id="Caminho_1403" data-name="Caminho 1403" d="M1.457,5.306a9.989,9.989,0,0,0,6.575.5c2.859-.573,4.846-2.223,6.785-3.834a24.874,24.874,0,0,1,5.131-3.567c-.27-.054-.541-.112-.814-.182a15.015,15.015,0,0,1-1.5-.484q-.731-.279-1.456-.64c-.476-.239-.962-.507-1.453-.808q-.7-.435-1.437-.967T11.859-5.8c-.318-.27-.654-.553-1.028-.861-.344-.285-.688-.564-1.029-.834v0c-.325-.255-.671-.518-1.035-.785q-.514-.378-1.044-.73-.494-.328-1.042-.649h0c-.353-.205-.71-.4-1.071-.577s-.735-.345-1.1-.492-.75-.281-1.155-.4c-.511-.152-1.006-.318-1.484-.494s-.932-.362-1.39-.567-.886-.416-1.3-.637-.816-.463-1.2-.715-.768-.522-1.125-.8h0c-.343-.268-.671-.553-.986-.85.1,1.722.057,3.361.009,4.972-.111,3.748-.216,7.358,1.94,11.6a8.561,8.561,0,0,0,3.64,3.933" transform="translate(4.172 15.196)" fill="#fff"/>
    </g>
    <g id="Grupo_1623" data-name="Grupo 1623" transform="translate(108.133 82.63)">
      <path id="Caminho_1404" data-name="Caminho 1404" d="M3.458,4.682A22.239,22.239,0,0,0,5.411-4.25a38.175,38.175,0,0,0-1.038-9.16c-.15.306-.289.611-.451.916A44.392,44.392,0,0,1-1.843-3.936C-4.017-1.325-5.457.406-7.434,9.994a19.991,19.991,0,0,1-1.739,5.237A13.656,13.656,0,0,1-9.9,16.47a31.952,31.952,0,0,0,8.327-5.15A20.158,20.158,0,0,0,3.458,4.682" transform="translate(9.903 13.41)" fill="#fff"/>
    </g>
    <g id="Grupo_1624" data-name="Grupo 1624" transform="translate(38.812 99.418)">
      <path id="Caminho_1405" data-name="Caminho 1405" d="M2.463,6.458l.1.012a19.591,19.591,0,0,0,6.929.764A14.243,14.243,0,0,0,14.764,5.66c1.983-1.016,3.512-1.95,4.844-2.767A33.066,33.066,0,0,1,32.387-1.395a60.757,60.757,0,0,1,8.883-.564A11.221,11.221,0,0,0,45.7-2.147c5.345-1.14,12.109-5.138,13.024-10.958.432-2.089.846-3.863,1.255-5.389-.016.012-.027.026-.042.038a41.757,41.757,0,0,1-4.535,3.415,31.4,31.4,0,0,1-14.473,4.8,38.95,38.95,0,0,1-5.885.072c-.309.019-.619.03-.934.031v-.1a44.764,44.764,0,0,1-9.7-1.947c-7.225-2.284-10.184.174-13.264,2.732C8.754-7.465,6.3-5.425,2.33-4.629a14.448,14.448,0,0,1-9.383-.845c.162.49.317.978.474,1.463C-5.09.652-3.708,4.975,2.463,6.458" transform="translate(7.053 18.494)" fill="#fff"/>
    </g>
    <g id="Grupo_1625" data-name="Grupo 1625" transform="translate(92.03 60.973)">
      <path id="Caminho_1406" data-name="Caminho 1406" d="M4.046,2.143A22.284,22.284,0,0,0,2.2-.285C1.093-1.563.121-2.644-.819-3.691-1.568-4.524-2.3-5.339-3-6.138c.263,6.02-1.924,9.3-4.115,12.589-2.4,3.594-4.8,7.2-2.25,16.214A14.96,14.96,0,0,1-8.8,26.635a13.305,13.305,0,0,1-2.79,8.306A24.744,24.744,0,0,0-4.871,31.9a37.166,37.166,0,0,0,4.03-3.036c4.96-4.315,7.45-9.092,8.053-13.732A19.161,19.161,0,0,0,4.046,2.143" transform="translate(11.587 6.138)" fill="#fff"/>
    </g>
    <g id="Grupo_1626" data-name="Grupo 1626" transform="translate(140.324 95.492)">
      <path id="Caminho_1407" data-name="Caminho 1407" d="M1.507.289V-.68H-4.317V.289h2.3V7.356H-.79V.289ZM7.828,7.356V6.412H4.351V3.68h3.1V2.735h-3.1V.265H7.716V-.68H3.122V7.356Zm10.916,0V-.68H16.869L14.5,5.667,12.163-.68H10.188V7.356h1.167V.637l2.509,6.719h1.179L17.54.637V7.356ZM31.169,1.68a3.51,3.51,0,0,0-.6-1.329,2.82,2.82,0,0,0-1.1-.869,4.733,4.733,0,0,0-3.4.012,2.926,2.926,0,0,0-1.124.888,3.566,3.566,0,0,0-.615,1.329,6.988,6.988,0,0,0-.186,1.658,7.53,7.53,0,0,0,.174,1.664,3.471,3.471,0,0,0,.6,1.336,2.873,2.873,0,0,0,1.117.888,4.14,4.14,0,0,0,1.739.322,3.943,3.943,0,0,0,1.688-.322,2.907,2.907,0,0,0,1.106-.888,3.634,3.634,0,0,0,.608-1.336,7.059,7.059,0,0,0,.186-1.664,7.412,7.412,0,0,0-.181-1.689m-.664,6.433-2.72-.248-.434.708,2.72.409Zm-.553-3.378a2.99,2.99,0,0,1-.385,1.028,1.767,1.767,0,0,1-.714.648,2.416,2.416,0,0,1-1.093.225,2.008,2.008,0,0,1-1.813-.811,4.515,4.515,0,0,1-.534-2.455,4.459,4.459,0,0,1,.54-2.424,1.994,1.994,0,0,1,1.808-.83,1.957,1.957,0,0,1,1.782.823,4.555,4.555,0,0,1,.528,2.431,7.087,7.087,0,0,1-.119,1.365m9.78-.322V-.68H38.5V4.272a4.157,4.157,0,0,1-.125,1.106,1.935,1.935,0,0,1-.355.729,1.3,1.3,0,0,1-.573.4,2.293,2.293,0,0,1-.791.125,3.228,3.228,0,0,1-.841-.1,1.374,1.374,0,0,1-.63-.362,1.665,1.665,0,0,1-.4-.72,4.225,4.225,0,0,1-.138-1.182V-.68H33.423V4.388a3.307,3.307,0,0,0,.774,2.4,3.333,3.333,0,0,0,2.461.788,3.119,3.119,0,0,0,2.3-.776,3.266,3.266,0,0,0,.774-2.391M46.96,7.356V6.412H43.483V3.68h3.1V2.735h-3.1V.265h3.365V-.68h-4.6V7.356ZM58.881-.68h-1.3L55.428,5.779,53.169-.68H51.8l3.03,8.036h1.129Zm6.384,8.036V6.412H61.787V3.68h3.1V2.735h-3.1V.265h3.366V-.68h-4.6V7.356Zm8.245,0-2.62-3.5a2.967,2.967,0,0,0,1.019-.267,1.947,1.947,0,0,0,.658-.515,1.894,1.894,0,0,0,.353-.7,3.114,3.114,0,0,0,.105-.814,2.312,2.312,0,0,0-.235-1.1,1.88,1.88,0,0,0-.61-.684,2.4,2.4,0,0,0-.843-.347,4.652,4.652,0,0,0-.957-.1H67.624V7.356h1.23V3.89h.587l2.567,3.466ZM71.461,2.53a1.193,1.193,0,0,1-1.011.391h-1.6V.265h1.584a1.33,1.33,0,0,1,.99.335,1.285,1.285,0,0,1,.332.944,1.583,1.583,0,0,1-.3.986" transform="translate(4.317 0.828)" fill="#fff"/>
    </g>
    <g id="Grupo_1627" data-name="Grupo 1627" transform="translate(132.671 56.396)">
      <path id="Caminho_1408" data-name="Caminho 1408" d="M5.359,1.234V-2.976H-15.349V1.234H-7.7V24.821h5.414V1.234ZM32.683-2.976H26.926L20.181,18.162,13.05-2.976H7.077l10.483,27.8h4.984ZM72.574,5.144a12.028,12.028,0,0,0-2.191-4.6,10.131,10.131,0,0,0-3.995-3.007,15.267,15.267,0,0,0-6.079-1.074A14.92,14.92,0,0,0,54.143-2.4,10.694,10.694,0,0,0,50.083.7a12.282,12.282,0,0,0-2.234,4.618,22.789,22.789,0,0,0-.688,5.714,24.668,24.668,0,0,0,.645,5.8,12.169,12.169,0,0,0,2.148,4.62,10.122,10.122,0,0,0,4.039,3.072,15.577,15.577,0,0,0,6.272,1.117,14.909,14.909,0,0,0,6.1-1.117,10.269,10.269,0,0,0,4.016-3.094,12.412,12.412,0,0,0,2.191-4.64,23.7,23.7,0,0,0,.666-5.758,24.262,24.262,0,0,0-.666-5.885m-6.616,13.7q-1.7,2.621-5.692,2.621a9.129,9.129,0,0,1-3.351-.559,5.26,5.26,0,0,1-2.341-1.805A8.513,8.513,0,0,1,53.2,15.885a22.2,22.2,0,0,1-.452-4.856q0-5.5,1.827-7.948T60.265.633A6.506,6.506,0,0,1,65.851,3.06q1.8,2.429,1.8,7.97,0,5.2-1.7,7.82M105.978,1.384a6.361,6.361,0,0,0-2.063-2.577,8.439,8.439,0,0,0-3.137-1.375,17.668,17.668,0,0,0-3.909-.409H87.117v27.8H92.53V13.952h4.813a15.115,15.115,0,0,0,3.824-.451,7.432,7.432,0,0,0,2.943-1.483,6.915,6.915,0,0,0,1.912-2.663,10.3,10.3,0,0,0,.688-4,9.64,9.64,0,0,0-.73-3.975m-5.092,6.123a3.2,3.2,0,0,1-.9,1.353,3.482,3.482,0,0,1-1.353.71A6.077,6.077,0,0,1,97,9.784H92.53V1.191h4.254a12.04,12.04,0,0,1,1.611.108,3.221,3.221,0,0,1,1.418.537A3.039,3.039,0,0,1,100.822,3.1a5.46,5.46,0,0,1,.387,2.256,6.173,6.173,0,0,1-.322,2.148m33.768-2.362a12.028,12.028,0,0,0-2.191-4.6,10.131,10.131,0,0,0-3.995-3.007,15.267,15.267,0,0,0-6.079-1.074A14.92,14.92,0,0,0,116.224-2.4,10.694,10.694,0,0,0,112.164.7a12.282,12.282,0,0,0-2.234,4.618,22.789,22.789,0,0,0-.688,5.714,24.668,24.668,0,0,0,.645,5.8,12.168,12.168,0,0,0,2.148,4.62,10.122,10.122,0,0,0,4.039,3.072,15.577,15.577,0,0,0,6.272,1.117,14.909,14.909,0,0,0,6.1-1.117,10.269,10.269,0,0,0,4.016-3.094,12.411,12.411,0,0,0,2.191-4.64,23.7,23.7,0,0,0,.667-5.758,24.26,24.26,0,0,0-.667-5.885m-6.616,13.7q-1.7,2.621-5.692,2.621a9.129,9.129,0,0,1-3.351-.559,5.267,5.267,0,0,1-2.341-1.805,8.513,8.513,0,0,1-1.375-3.222,22.2,22.2,0,0,1-.452-4.856q0-5.5,1.827-7.948T122.346.633a6.506,6.506,0,0,1,5.586,2.427q1.8,2.429,1.8,7.97,0,5.2-1.7,7.82M161.486-2.976h-5.757l-6.745,21.139L141.851-2.976H135.88l10.483,27.8h4.984Zm25.972,8.121a12.028,12.028,0,0,0-2.191-4.6,10.131,10.131,0,0,0-3.995-3.007,15.267,15.267,0,0,0-6.079-1.074A14.919,14.919,0,0,0,169.026-2.4,10.694,10.694,0,0,0,164.967.7a12.282,12.282,0,0,0-2.234,4.618,22.789,22.789,0,0,0-.688,5.714,24.667,24.667,0,0,0,.645,5.8,12.148,12.148,0,0,0,2.148,4.62,10.122,10.122,0,0,0,4.039,3.072,15.577,15.577,0,0,0,6.272,1.117,14.909,14.909,0,0,0,6.1-1.117,10.269,10.269,0,0,0,4.016-3.094,12.411,12.411,0,0,0,2.191-4.64,23.7,23.7,0,0,0,.667-5.758,24.26,24.26,0,0,0-.667-5.885m-6.616,13.7q-1.7,2.621-5.692,2.621a9.129,9.129,0,0,1-3.351-.559,5.271,5.271,0,0,1-2.342-1.805,8.556,8.556,0,0,1-1.375-3.222,22.288,22.288,0,0,1-.451-4.856q0-5.5,1.825-7.948T175.149.633a6.506,6.506,0,0,1,5.586,2.427q1.8,2.429,1.8,7.97,0,5.2-1.7,7.82" transform="translate(15.349 3.535)" fill="#fff"/>
    </g>
  </g>
</svg>
